<svg id="svg" version="1.1" xmlns="http://www.w3.org/2000/svg" xmlns:xlink="http://www.w3.org/1999/xlink" width="400" height="400" viewBox="0, 0, 400,400"><g id="svgg"><path id="path0" d="M182.062 1.710 C 180.288 3.613,179.503 74.861,181.220 78.069 C 183.320 81.993,190.228 81.723,192.086 77.645 C 193.936 73.584,193.263 4.491,191.350 2.058 C 189.217 -0.652,184.430 -0.832,182.062 1.710 M325.743 29.141 C 318.992 31.053,315.735 34.101,245.567 104.150 C 182.180 167.430,174.873 174.479,172.672 174.479 C 168.841 174.479,167.745 172.709,159.037 152.465 C 154.542 142.017,149.202 130.772,147.170 127.476 C 142.210 119.433,117.004 94.017,111.507 91.516 C 92.723 82.971,70.392 93.346,70.330 110.647 C 70.302 118.260,71.571 120.216,86.000 134.815 C 105.298 154.339,104.875 148.462,90.993 204.113 C 77.768 257.128,80.172 251.905,59.233 273.113 C 41.386 291.189,40.376 292.836,44.679 296.845 C 48.857 300.737,50.529 299.755,66.234 284.180 C 91.041 259.577,89.166 263.473,103.287 207.190 C 118.437 146.807,118.707 149.808,96.068 126.927 C 79.377 110.058,78.821 106.867,91.720 101.941 C 100.664 98.525,105.601 101.073,121.484 117.305 C 136.294 132.438,137.243 133.931,148.186 159.300 C 158.713 183.706,161.621 186.997,172.656 187.003 C 180.556 187.007,179.058 188.358,253.516 114.064 C 292.188 75.477,325.059 43.282,326.563 42.519 C 334.860 38.309,344.531 43.897,344.531 52.901 C 344.531 58.195,346.790 55.760,276.207 126.563 C 201.480 201.522,205.896 196.395,205.882 208.203 C 205.867 220.670,216.049 232.812,226.517 232.813 C 227.541 232.813,227.755 233.865,227.755 238.904 C 227.755 253.776,239.240 264.772,253.898 263.935 L 258.496 263.672 259.000 266.363 C 260.306 273.348,267.787 282.381,273.950 284.415 L 276.753 285.340 262.791 299.374 C 239.780 322.502,228.606 331.288,196.875 351.200 C 165.626 370.810,144.531 388.044,144.531 393.964 C 144.531 402.225,151.505 402.212,160.331 393.936 C 173.429 381.652,180.168 376.696,204.688 361.314 C 239.804 339.284,244.120 335.681,289.280 290.697 C 315.910 264.172,327.103 252.508,328.335 250.000 C 334.459 237.536,327.652 220.413,314.752 215.832 C 311.926 214.828,311.037 214.158,311.379 213.289 C 316.932 199.195,307.887 181.971,293.518 179.275 L 290.625 178.732 290.624 172.765 C 290.623 162.582,285.040 153.842,275.974 149.832 L 272.460 148.277 313.472 107.146 C 359.022 61.466,357.031 63.935,357.031 53.125 C 357.031 36.597,341.485 24.680,325.743 29.141 M125.781 32.813 C 122.682 35.911,123.573 38.346,134.439 56.474 C 145.447 74.839,146.359 75.807,151.169 74.220 C 153.625 73.409,155.469 70.804,155.469 68.144 C 155.469 66.837,138.990 38.630,135.398 33.789 C 133.088 30.676,128.395 30.199,125.781 32.813 M238.522 33.008 C 235.501 36.340,217.969 66.634,217.969 68.523 C 217.969 72.974,222.730 76.001,226.809 74.142 C 229.514 72.910,249.219 40.188,249.219 36.929 C 249.219 31.740,242.054 29.113,238.522 33.008 M272.550 162.291 C 277.499 165.955,279.636 172.898,277.261 177.590 C 276.030 180.023,238.318 217.846,235.781 219.192 C 226.608 224.063,215.702 214.612,218.730 204.417 C 219.904 200.465,255.155 164.404,260.507 161.680 C 264.319 159.740,269.458 160.001,272.550 162.291 M293.458 192.677 C 302.723 197.074,302.827 206.252,293.714 215.234 C 287.187 221.668,285.641 224.217,286.340 227.400 C 287.456 232.477,292.746 233.410,298.202 229.492 C 308.484 222.108,322.677 233.000,317.104 243.997 C 315.868 246.436,291.432 270.979,288.906 272.319 C 282.286 275.830,272.826 271.101,271.414 263.574 C 270.592 259.191,272.235 255.373,277.340 249.802 C 282.355 244.329,283.148 241.786,280.858 238.517 C 277.729 234.049,273.273 235.542,265.234 243.750 C 255.722 253.463,247.376 254.256,242.367 245.923 C 237.310 237.511,238.217 235.846,259.647 214.176 C 282.769 190.795,285.642 188.968,293.458 192.677 " stroke="none" fill="#000000" fill-rule="evenodd"></path></g></svg>