<svg id="svg" version="1.1" xmlns="http://www.w3.org/2000/svg" xmlns:xlink="http://www.w3.org/1999/xlink" width="400" height="355.15695067264573" viewBox="0, 0, 400,355.15695067264573"><g id="svgg"><path id="path0" d="M270.109 9.245 C 267.297 9.412,265.393 9.702,264.640 10.078 C 264.004 10.395,262.475 10.830,261.243 11.045 C 260.010 11.260,258.815 11.659,258.589 11.932 C 258.362 12.205,257.552 12.596,256.790 12.802 C 256.027 13.007,254.824 13.568,254.117 14.048 C 253.410 14.527,252.679 14.920,252.493 14.920 C 251.669 14.920,245.243 20.913,243.394 23.405 C 240.234 27.665,245.466 32.663,249.189 28.940 C 249.879 28.250,250.444 27.568,250.444 27.424 C 250.444 26.952,253.653 23.803,255.141 22.816 C 257.158 21.477,261.528 19.183,262.061 19.183 C 262.302 19.183,263.105 18.874,263.843 18.497 C 267.461 16.648,284.349 16.642,288.810 18.487 C 289.689 18.851,291.069 19.317,291.877 19.524 C 292.685 19.730,293.530 20.121,293.756 20.394 C 293.983 20.666,294.557 20.987,295.032 21.106 C 298.175 21.895,306.927 30.360,306.927 32.612 C 306.927 32.751,307.314 33.591,307.786 34.478 C 308.258 35.365,308.761 36.723,308.904 37.495 C 309.048 38.267,309.461 39.763,309.822 40.819 C 310.758 43.554,310.742 50.217,309.792 53.337 C 309.414 54.579,308.992 56.234,308.855 57.016 C 308.717 57.798,308.315 58.996,307.960 59.680 C 307.606 60.364,306.716 62.202,305.983 63.766 C 305.251 65.329,304.444 66.735,304.191 66.892 C 303.937 67.048,303.730 67.385,303.730 67.642 C 303.730 68.472,299.613 73.556,296.008 77.178 C 293.955 79.241,289.094 83.126,288.566 83.126 C 288.323 83.126,287.953 83.446,287.744 83.837 C 287.535 84.227,287.114 84.547,286.808 84.547 C 286.137 84.547,278.508 92.172,278.508 92.844 C 278.508 93.105,278.210 93.587,277.847 93.916 C 277.483 94.246,276.899 95.150,276.549 95.925 C 276.200 96.701,275.790 97.336,275.640 97.336 C 275.489 97.336,275.174 97.935,274.940 98.668 C 274.706 99.401,274.227 100.480,273.877 101.066 C 273.526 101.652,273.126 102.771,272.987 103.552 C 272.848 104.334,272.448 105.616,272.098 106.401 C 271.747 107.186,271.286 109.344,271.072 111.196 C 270.859 113.049,270.530 115.204,270.342 115.986 C 269.017 121.481,270.434 125.400,273.744 125.400 C 276.924 125.400,277.793 124.287,277.813 120.187 C 277.821 118.463,277.969 116.412,278.140 115.631 C 278.311 114.849,278.720 112.851,279.049 111.190 C 279.378 109.529,279.941 107.531,280.301 106.750 C 280.661 105.968,281.129 104.656,281.340 103.834 C 281.552 103.012,281.893 102.235,282.099 102.107 C 282.306 101.980,282.775 101.174,283.143 100.316 C 283.511 99.458,283.966 98.757,284.155 98.757 C 284.344 98.757,284.606 98.419,284.737 98.007 C 285.204 96.537,291.169 90.888,293.891 89.339 C 294.439 89.027,295.196 88.501,295.574 88.169 C 295.952 87.838,296.769 87.167,297.390 86.679 C 299.284 85.187,306.338 78.000,307.282 76.599 C 308.241 75.178,309.678 73.180,310.766 71.758 C 311.140 71.270,311.566 70.471,311.714 69.982 C 311.861 69.494,312.269 68.774,312.620 68.384 C 312.971 67.993,313.433 67.012,313.648 66.205 C 313.862 65.397,314.259 64.552,314.530 64.327 C 314.801 64.102,315.130 63.324,315.261 62.598 C 315.392 61.873,315.795 60.699,316.158 59.990 C 316.521 59.281,316.921 57.922,317.048 56.970 C 317.174 56.019,317.517 54.000,317.810 52.486 C 318.726 47.742,317.711 36.558,316.128 33.963 C 315.758 33.356,315.455 32.582,315.454 32.243 C 315.453 31.463,313.430 27.499,312.357 26.172 C 311.911 25.619,311.545 24.998,311.545 24.791 C 311.545 24.585,311.186 24.053,310.746 23.610 C 308.963 21.813,305.282 18.125,304.581 17.434 C 304.169 17.028,303.662 16.696,303.453 16.696 C 303.245 16.696,302.622 16.327,302.070 15.877 C 301.128 15.108,300.021 14.534,295.204 12.317 C 294.130 11.823,292.218 11.234,290.956 11.009 C 289.695 10.783,288.228 10.375,287.697 10.100 C 286.874 9.674,276.801 8.754,274.956 8.936 C 274.663 8.965,272.481 9.104,270.109 9.245 M270.160 142.427 C 269.378 142.581,268.145 142.969,267.418 143.289 C 266.692 143.610,265.813 143.875,265.464 143.879 C 264.251 143.891,259.688 147.198,258.141 149.187 C 255.557 152.508,255.062 153.249,255.062 153.793 C 255.062 154.115,254.711 155.012,254.283 155.786 C 253.099 157.922,253.091 166.805,254.271 168.903 C 254.706 169.677,255.062 170.574,255.062 170.897 C 255.062 171.219,255.542 172.087,256.128 172.824 C 256.714 173.562,257.194 174.308,257.194 174.483 C 257.194 174.993,260.793 178.335,262.159 179.092 C 262.847 179.474,263.810 180.009,264.298 180.281 C 267.836 182.255,275.993 183.233,277.625 181.879 C 277.840 181.700,278.886 181.328,279.949 181.051 C 283.041 180.245,290.231 174.516,290.231 172.858 C 290.231 172.599,290.544 171.989,290.927 171.502 C 293.581 168.128,293.581 156.561,290.927 153.187 C 290.544 152.700,290.231 152.101,290.231 151.856 C 290.231 151.224,284.730 145.648,284.107 145.648 C 283.823 145.648,283.317 145.345,282.982 144.974 C 282.646 144.604,281.638 144.116,280.742 143.890 C 279.845 143.664,278.691 143.262,278.177 142.997 C 277.023 142.400,272.080 142.049,270.160 142.427 M277.833 151.302 C 278.384 151.709,278.997 152.043,279.195 152.043 C 279.801 152.043,283.837 156.192,283.837 156.816 C 283.837 157.137,284.156 158.026,284.547 158.792 C 285.035 159.749,285.258 160.886,285.258 162.425 C 285.258 163.985,285.042 165.066,284.547 165.990 C 284.156 166.719,283.837 167.559,283.837 167.856 C 283.837 168.784,279.850 172.461,277.707 173.510 C 275.050 174.809,270.093 174.765,268.393 173.428 C 267.847 172.998,267.205 172.647,266.966 172.647 C 266.394 172.647,263.643 169.860,262.522 168.144 C 261.137 166.024,261.177 158.588,262.585 156.483 C 264.410 153.755,267.975 151.014,270.362 150.503 C 272.379 150.072,276.809 150.545,277.833 151.302 M222.380 179.823 C 221.501 180.016,220.534 180.394,220.232 180.663 C 219.930 180.931,218.851 181.343,217.834 181.578 C 216.818 181.813,215.986 182.124,215.986 182.270 C 215.986 182.415,215.226 182.821,214.298 183.171 C 213.370 183.521,212.131 184.078,211.545 184.409 C 210.959 184.740,209.971 185.117,209.350 185.246 C 208.728 185.375,208.038 185.700,207.815 185.968 C 207.593 186.236,206.902 186.566,206.281 186.702 C 205.659 186.837,204.289 187.407,203.236 187.968 C 202.183 188.529,201.089 188.988,200.805 188.988 C 200.522 188.988,199.900 189.294,199.424 189.669 C 198.948 190.043,197.933 190.455,197.168 190.584 C 196.404 190.714,195.590 191.045,195.361 191.322 C 195.132 191.598,194.285 192.002,193.479 192.219 C 192.673 192.436,191.588 192.917,191.067 193.287 C 190.547 193.658,189.906 193.962,189.643 193.962 C 189.380 193.963,188.206 194.442,187.034 195.027 C 185.861 195.611,184.642 196.090,184.324 196.091 C 184.006 196.092,183.547 196.332,183.305 196.624 C 183.062 196.917,182.123 197.384,181.219 197.662 C 180.314 197.941,178.940 198.501,178.166 198.907 C 177.392 199.313,176.495 199.645,176.172 199.645 C 175.849 199.645,175.203 199.944,174.737 200.309 C 174.271 200.674,173.330 201.093,172.647 201.240 C 171.963 201.387,170.764 201.872,169.982 202.317 C 169.201 202.763,168.053 203.233,167.431 203.363 C 166.810 203.492,166.121 203.815,165.901 204.080 C 165.681 204.346,164.875 204.668,164.111 204.797 C 163.346 204.927,162.351 205.323,161.898 205.679 C 161.446 206.035,160.363 206.516,159.490 206.748 C 158.618 206.981,157.664 207.381,157.371 207.638 C 157.078 207.894,156.133 208.292,155.272 208.522 C 154.410 208.751,153.371 209.153,152.963 209.414 C 152.554 209.675,151.501 210.077,150.622 210.306 C 149.742 210.536,148.781 210.939,148.484 211.203 C 148.188 211.467,147.152 211.861,146.181 212.078 C 145.211 212.296,144.171 212.695,143.872 212.966 C 143.573 213.237,142.584 213.626,141.675 213.829 C 140.766 214.033,139.489 214.507,138.839 214.881 C 138.188 215.256,136.985 215.671,136.166 215.802 C 135.347 215.934,134.492 216.264,134.267 216.535 C 134.041 216.807,132.916 217.214,131.766 217.441 C 130.616 217.667,129.500 218.063,129.286 218.321 C 129.072 218.578,127.990 218.984,126.882 219.221 C 125.774 219.459,124.620 219.862,124.319 220.117 C 124.018 220.371,122.918 220.763,121.875 220.986 C 120.832 221.210,119.479 221.677,118.870 222.025 C 118.261 222.372,117.131 222.767,116.360 222.903 C 115.589 223.038,114.592 223.437,114.144 223.789 C 113.696 224.141,112.575 224.543,111.652 224.681 C 110.730 224.820,109.610 225.220,109.165 225.570 C 108.719 225.921,107.762 226.319,107.038 226.454 C 106.314 226.590,105.355 226.990,104.907 227.343 C 104.458 227.695,103.499 228.095,102.775 228.231 C 102.051 228.366,101.074 228.780,100.605 229.150 C 100.135 229.519,99.213 229.922,98.556 230.046 C 97.899 230.169,97.177 230.492,96.952 230.763 C 96.727 231.034,95.882 231.432,95.074 231.647 C 94.266 231.862,93.358 232.258,93.055 232.528 C 92.752 232.798,91.801 233.267,90.941 233.570 C 90.082 233.874,89.130 234.338,88.828 234.603 C 88.525 234.868,87.877 235.200,87.389 235.340 C 86.901 235.480,85.941 235.943,85.258 236.368 C 83.168 237.666,82.642 237.977,81.307 238.701 C 80.600 239.085,78.522 240.413,76.689 241.653 C 74.857 242.893,73.170 244.021,72.942 244.159 C 71.624 244.959,71.403 243.574,71.403 234.490 L 71.403 225.692 70.426 224.418 C 69.069 222.648,70.692 222.746,42.584 222.740 C 14.226 222.735,15.441 222.661,14.210 224.458 L 13.321 225.755 13.230 284.192 L 13.138 342.629 13.992 344.227 C 14.608 345.381,15.128 345.888,15.860 346.050 C 17.587 346.432,67.194 346.390,68.561 346.005 C 70.945 345.334,71.403 344.068,71.403 338.145 C 71.403 331.099,70.745 331.620,79.256 331.923 C 83.045 332.057,87.265 332.319,88.632 332.504 C 90.000 332.689,99.112 332.942,108.881 333.066 C 125.719 333.279,133.031 333.138,155.773 332.161 C 160.462 331.960,169.813 331.637,176.554 331.444 C 183.295 331.250,190.888 330.864,193.428 330.585 C 195.968 330.306,201.723 329.975,206.217 329.849 C 218.157 329.513,225.632 328.499,227.359 326.980 C 227.655 326.720,228.585 326.352,229.427 326.163 C 230.268 325.974,231.225 325.577,231.553 325.282 C 231.881 324.986,232.629 324.629,233.215 324.489 C 233.801 324.348,234.920 323.875,235.702 323.438 C 236.483 323.000,237.581 322.535,238.142 322.405 C 238.703 322.274,239.390 321.940,239.668 321.661 C 239.946 321.383,240.846 320.977,241.668 320.758 C 242.489 320.539,243.412 320.137,243.718 319.865 C 244.023 319.592,244.823 319.182,245.494 318.953 C 246.165 318.724,247.095 318.242,247.561 317.883 C 248.027 317.523,248.765 317.229,249.201 317.229 C 249.636 317.229,250.377 316.927,250.846 316.558 C 251.315 316.189,252.293 315.723,253.020 315.523 C 253.746 315.322,254.764 314.825,255.282 314.417 C 255.800 314.010,256.419 313.677,256.659 313.677 C 257.051 313.677,260.845 311.934,262.167 311.147 C 262.460 310.972,263.099 310.655,263.588 310.440 C 264.076 310.226,265.435 309.588,266.607 309.022 C 267.780 308.456,268.919 307.993,269.139 307.993 C 269.360 307.993,269.738 307.754,269.981 307.462 C 270.223 307.169,271.082 306.742,271.889 306.512 C 272.697 306.282,273.607 305.884,273.913 305.627 C 274.219 305.370,275.018 304.972,275.689 304.743 C 276.360 304.514,277.277 304.044,277.725 303.698 C 278.174 303.352,279.053 302.960,279.679 302.827 C 280.305 302.694,281.065 302.367,281.368 302.101 C 281.670 301.835,282.622 301.369,283.481 301.066 C 284.341 300.762,285.292 300.299,285.595 300.036 C 285.898 299.772,286.732 299.369,287.449 299.139 C 288.166 298.909,288.937 298.499,289.161 298.228 C 289.386 297.958,290.078 297.629,290.700 297.497 C 291.321 297.365,292.077 297.039,292.380 296.773 C 292.683 296.506,293.634 296.040,294.494 295.737 C 295.354 295.434,296.305 294.966,296.608 294.697 C 296.910 294.429,297.776 294.041,298.532 293.836 C 299.288 293.630,300.167 293.235,300.486 292.957 C 300.805 292.679,301.705 292.249,302.487 292.000 C 303.268 291.752,304.289 291.252,304.755 290.890 C 305.221 290.527,305.879 290.231,306.217 290.231 C 306.555 290.231,307.213 289.934,307.679 289.572 C 308.145 289.210,309.165 288.705,309.947 288.450 C 310.728 288.196,311.528 287.791,311.723 287.550 C 311.918 287.309,312.718 286.911,313.499 286.666 C 314.281 286.421,315.278 285.942,315.716 285.601 C 316.154 285.261,317.057 284.880,317.723 284.755 C 318.389 284.630,319.128 284.294,319.366 284.007 C 319.604 283.721,320.443 283.313,321.232 283.101 C 322.020 282.888,322.888 282.492,323.160 282.219 C 323.432 281.947,324.269 281.559,325.019 281.357 C 325.769 281.155,326.564 280.771,326.786 280.504 C 327.008 280.236,327.903 279.818,328.774 279.574 C 329.646 279.330,330.541 278.911,330.763 278.644 C 330.985 278.377,331.821 277.981,332.622 277.766 C 333.423 277.550,334.451 277.081,334.906 276.722 C 335.362 276.364,336.247 275.962,336.873 275.830 C 337.499 275.698,338.330 275.304,338.721 274.956 C 339.112 274.607,339.991 274.204,340.675 274.060 C 341.359 273.915,342.300 273.498,342.765 273.133 C 343.231 272.768,343.791 272.468,344.009 272.468 C 344.227 272.467,345.364 271.988,346.536 271.403 C 347.709 270.819,348.928 270.340,349.246 270.339 C 349.564 270.338,350.026 270.094,350.273 269.797 C 350.519 269.500,351.414 269.082,352.262 268.869 C 353.109 268.656,354.131 268.196,354.532 267.848 C 354.934 267.500,355.848 267.105,356.564 266.971 C 357.280 266.837,358.242 266.431,358.701 266.070 C 359.160 265.709,360.048 265.301,360.674 265.165 C 361.300 265.028,362.179 264.628,362.628 264.277 C 363.076 263.925,363.956 263.529,364.582 263.397 C 365.207 263.264,366.199 262.871,366.785 262.522 C 367.371 262.174,368.410 261.774,369.094 261.634 C 369.778 261.494,370.817 261.099,371.403 260.755 C 371.989 260.412,373.268 259.938,374.245 259.701 C 375.222 259.465,376.261 259.058,376.554 258.797 C 376.847 258.535,377.966 258.156,379.041 257.954 C 380.115 257.752,381.628 257.258,382.402 256.857 C 383.176 256.456,383.975 256.123,384.178 256.117 C 386.986 256.038,389.458 248.888,387.959 245.181 C 387.589 244.266,387.090 242.997,386.850 242.362 C 386.611 241.727,386.285 241.208,386.126 241.208 C 385.968 241.208,385.736 240.886,385.611 240.492 C 385.136 238.995,378.467 233.393,377.161 233.393 C 376.987 233.393,376.454 233.086,375.978 232.712 C 375.502 232.337,374.459 231.920,373.661 231.785 C 372.862 231.650,371.468 231.197,370.563 230.779 C 368.259 229.714,350.191 229.600,348.172 230.638 C 347.508 230.979,345.910 231.439,344.620 231.661 C 343.329 231.882,341.714 232.341,341.030 232.680 C 340.346 233.019,339.147 233.411,338.366 233.552 C 337.584 233.692,336.465 234.100,335.879 234.458 C 335.293 234.816,334.174 235.217,333.393 235.350 C 332.611 235.482,331.554 235.884,331.043 236.242 C 330.532 236.601,329.532 237.004,328.820 237.137 C 328.108 237.271,327.141 237.682,326.673 238.051 C 325.668 238.841,324.721 238.905,323.815 238.242 C 323.054 237.686,323.017 237.745,326.465 234.124 C 331.481 228.857,333.064 227.139,333.393 226.604 C 333.588 226.286,334.053 225.566,334.426 225.003 C 334.800 224.439,335.475 223.416,335.928 222.728 C 338.441 218.910,337.760 211.713,334.602 208.703 C 334.397 208.508,333.863 207.988,333.415 207.549 C 332.967 207.109,332.395 206.750,332.143 206.750 C 331.891 206.750,330.812 206.336,329.744 205.832 C 327.576 204.806,316.927 204.605,315.768 205.569 C 315.492 205.799,314.469 206.171,313.494 206.397 C 312.520 206.623,310.844 207.212,309.769 207.706 C 305.572 209.637,303.357 210.783,303.007 211.206 C 302.805 211.448,302.127 211.855,301.498 212.111 C 300.869 212.366,300.146 212.863,299.891 213.215 C 299.636 213.567,299.254 213.854,299.044 213.854 C 298.833 213.854,298.309 214.214,297.880 214.654 C 294.941 217.665,294.417 217.795,289.013 216.850 C 285.451 216.227,275.789 217.199,274.019 218.359 C 273.565 218.657,272.514 219.053,271.682 219.240 C 270.851 219.426,269.928 219.790,269.632 220.047 C 269.336 220.304,268.455 220.714,267.673 220.958 C 266.892 221.202,265.933 221.684,265.542 222.028 C 265.151 222.372,264.432 222.772,263.943 222.916 C 263.455 223.061,262.769 223.479,262.420 223.845 C 262.070 224.212,261.601 224.512,261.377 224.512 C 261.153 224.512,260.639 224.816,260.236 225.188 C 259.833 225.560,259.009 226.160,258.405 226.520 C 257.356 227.147,255.998 228.075,253.286 230.018 C 252.602 230.508,251.483 231.307,250.799 231.794 C 250.115 232.281,248.996 233.080,248.313 233.570 C 247.629 234.060,246.507 234.838,245.821 235.299 C 245.134 235.761,244.355 236.399,244.090 236.719 C 243.825 237.039,243.395 237.300,243.136 237.300 C 242.876 237.300,242.536 237.529,242.379 237.809 C 242.077 238.349,240.247 239.748,238.647 240.661 C 238.118 240.964,237.300 241.570,236.831 242.009 C 235.450 243.299,233.002 245.293,230.906 246.834 C 229.831 247.624,228.627 248.599,228.229 249.002 C 227.831 249.404,227.320 249.734,227.092 249.734 C 226.865 249.734,226.535 249.990,226.359 250.304 C 226.183 250.618,225.320 251.457,224.440 252.169 C 223.560 252.881,221.818 254.311,220.568 255.347 C 219.318 256.383,217.863 257.582,217.336 258.012 C 216.809 258.441,215.614 259.495,214.682 260.353 C 213.749 261.212,211.872 262.873,210.510 264.045 L 208.035 266.176 203.267 265.937 C 200.001 265.773,197.887 265.482,196.560 265.016 C 195.493 264.641,193.873 264.237,192.959 264.118 C 192.045 263.999,190.577 263.597,189.698 263.223 C 188.819 262.850,187.439 262.378,186.631 262.175 C 185.823 261.973,184.965 261.568,184.723 261.276 C 184.481 260.985,184.054 260.746,183.775 260.746 C 178.525 260.746,174.937 250.528,178.872 246.785 C 181.418 244.364,181.882 244.013,183.066 243.609 C 183.685 243.398,184.573 242.931,185.039 242.572 C 185.505 242.212,186.129 241.918,186.426 241.918 C 186.722 241.918,187.780 241.538,188.776 241.074 C 189.771 240.609,191.383 240.114,192.358 239.974 C 193.332 239.833,194.556 239.498,195.077 239.228 C 195.598 238.959,197.181 238.559,198.594 238.339 C 200.007 238.120,201.661 237.637,202.269 237.267 C 202.877 236.896,203.774 236.591,204.263 236.590 C 204.751 236.588,206.110 236.109,207.282 235.524 C 208.455 234.939,209.674 234.460,209.992 234.460 C 210.310 234.459,210.769 234.219,211.011 233.927 C 211.254 233.635,212.070 233.211,212.825 232.984 C 213.580 232.758,214.465 232.278,214.792 231.917 C 215.118 231.556,215.576 231.261,215.810 231.261 C 216.043 231.261,216.896 230.782,217.706 230.195 C 218.515 229.609,219.332 229.130,219.523 229.130 C 219.713 229.130,220.040 228.810,220.249 228.419 C 220.458 228.028,220.823 227.706,221.060 227.703 C 222.021 227.689,230.906 218.477,230.906 217.495 C 230.906 217.281,231.274 216.654,231.723 216.102 C 232.484 215.167,233.661 212.874,235.477 208.789 C 237.110 205.116,237.144 195.033,235.537 191.174 C 235.158 190.265,234.679 188.860,234.473 188.052 C 234.267 187.244,233.870 186.394,233.590 186.162 C 233.311 185.931,232.986 185.299,232.867 184.759 C 232.038 180.982,227.288 178.746,222.380 179.823 M225.601 188.290 C 225.979 188.492,226.288 188.854,226.288 189.094 C 226.288 189.334,226.633 190.168,227.055 190.947 C 227.765 192.257,228.547 195.740,229.015 199.677 C 229.382 202.765,227.530 208.199,224.682 212.392 C 224.100 213.249,223.378 214.314,223.078 214.760 C 222.274 215.954,216.997 220.997,215.475 222.025 C 214.752 222.513,213.732 223.251,213.208 223.664 C 212.684 224.077,211.856 224.535,211.368 224.681 C 210.879 224.828,210.160 225.238,209.769 225.592 C 209.378 225.946,208.579 226.351,207.993 226.493 C 207.407 226.635,206.569 227.029,206.131 227.368 C 205.693 227.706,204.734 228.095,204.000 228.231 C 203.265 228.367,202.185 228.768,201.599 229.122 C 201.012 229.476,199.813 229.880,198.934 230.020 C 198.055 230.160,196.696 230.561,195.915 230.911 C 195.133 231.261,193.535 231.664,192.362 231.805 C 191.190 231.947,189.664 232.349,188.971 232.698 C 188.278 233.047,187.079 233.446,186.307 233.584 C 185.534 233.722,184.423 234.120,183.837 234.469 C 183.250 234.818,182.091 235.284,181.261 235.505 C 180.431 235.726,179.751 236.053,179.751 236.232 C 179.751 236.410,179.072 236.858,178.242 237.226 C 177.411 237.594,176.512 238.161,176.244 238.486 C 175.976 238.811,175.590 239.076,175.385 239.076 C 174.904 239.076,170.874 243.394,170.872 243.911 C 170.871 244.128,170.440 244.928,169.913 245.688 C 167.650 248.954,168.808 256.958,172.167 261.279 C 172.623 261.865,173.277 262.723,173.620 263.186 C 174.203 263.971,174.888 264.687,176.208 265.892 C 176.507 266.164,177.488 266.703,178.390 267.090 C 179.291 267.476,180.135 267.965,180.266 268.177 C 180.397 268.388,180.790 268.561,181.140 268.561 C 181.490 268.561,182.494 268.942,183.370 269.408 C 184.246 269.874,185.669 270.367,186.531 270.504 C 187.394 270.641,188.675 271.044,189.378 271.400 C 190.082 271.756,192.000 272.213,193.641 272.416 C 195.282 272.618,197.321 273.032,198.171 273.334 C 202.764 274.967,235.306 274.816,239.711 273.141 C 240.212 272.950,242.312 272.637,244.379 272.446 C 246.445 272.254,249.094 271.794,250.266 271.424 C 251.439 271.053,253.582 270.645,255.029 270.517 C 256.475 270.389,258.394 269.997,259.291 269.647 C 260.189 269.296,261.851 268.896,262.984 268.758 C 264.117 268.619,265.716 268.217,266.536 267.865 C 267.357 267.512,268.891 267.116,269.945 266.985 C 270.999 266.854,272.438 266.457,273.142 266.102 C 273.846 265.748,275.218 265.341,276.191 265.199 C 277.163 265.057,278.522 264.656,279.210 264.307 C 279.899 263.958,281.181 263.555,282.060 263.410 C 282.940 263.266,284.244 262.851,284.959 262.489 C 285.673 262.127,286.952 261.726,287.800 261.598 C 288.649 261.471,289.822 261.080,290.409 260.731 C 290.995 260.381,292.114 259.980,292.895 259.840 C 293.677 259.699,294.902 259.290,295.618 258.930 C 296.334 258.570,297.690 258.103,298.632 257.892 C 299.573 257.681,300.586 257.300,300.882 257.046 C 301.179 256.791,302.220 256.389,303.197 256.151 C 304.174 255.914,305.213 255.514,305.506 255.263 C 305.799 255.012,306.838 254.613,307.815 254.375 C 308.792 254.137,309.831 253.730,310.124 253.470 C 310.417 253.210,311.372 252.806,312.245 252.574 C 313.119 252.341,314.158 251.923,314.554 251.644 C 314.951 251.365,315.915 250.966,316.696 250.757 C 317.478 250.549,318.357 250.168,318.650 249.911 C 318.943 249.654,319.902 249.255,320.782 249.023 C 321.661 248.791,322.620 248.392,322.913 248.135 C 323.206 247.878,324.128 247.487,324.961 247.265 C 325.794 247.043,326.993 246.564,327.625 246.200 C 328.257 245.837,329.334 245.423,330.018 245.281 C 330.702 245.139,331.642 244.724,332.108 244.359 C 332.574 243.993,333.310 243.694,333.743 243.694 C 334.176 243.694,335.235 243.320,336.096 242.862 C 336.957 242.404,338.264 241.917,339.001 241.778 C 339.737 241.640,340.855 241.231,341.484 240.868 C 342.114 240.506,343.348 240.096,344.227 239.956 C 345.107 239.817,346.301 239.459,346.883 239.162 C 347.810 238.687,350.741 238.226,357.726 237.456 C 360.472 237.154,369.567 238.452,371.389 239.405 C 372.163 239.811,372.981 240.142,373.206 240.142 C 374.050 240.142,378.017 243.601,379.663 245.772 C 381.155 247.740,380.477 249.399,377.975 249.907 C 377.291 250.045,376.377 250.383,375.943 250.658 C 375.509 250.933,374.329 251.335,373.321 251.551 C 372.313 251.767,370.989 252.230,370.380 252.580 C 369.770 252.931,368.712 253.333,368.028 253.475 C 367.345 253.618,366.404 254.033,365.938 254.398 C 365.472 254.763,364.816 255.062,364.481 255.062 C 364.146 255.062,363.168 255.435,362.309 255.890 C 361.449 256.346,360.213 256.824,359.563 256.953 C 358.912 257.082,357.994 257.490,357.523 257.861 C 357.052 258.231,356.075 258.645,355.351 258.781 C 354.627 258.917,353.650 259.331,353.180 259.700 C 352.710 260.070,351.788 260.473,351.131 260.596 C 350.474 260.719,349.752 261.042,349.527 261.313 C 349.302 261.585,348.463 261.983,347.662 262.199 C 346.861 262.414,345.819 262.895,345.346 263.267 C 344.874 263.639,344.229 263.944,343.913 263.944 C 343.597 263.945,342.380 264.424,341.208 265.009 C 340.036 265.594,338.896 266.073,338.676 266.073 C 338.456 266.074,338.077 266.314,337.834 266.606 C 337.592 266.898,336.733 267.328,335.926 267.561 C 335.119 267.794,334.082 268.271,333.623 268.619 C 333.164 268.968,332.250 269.354,331.593 269.477 C 330.936 269.600,330.212 269.926,329.984 270.201 C 329.756 270.475,328.725 270.946,327.692 271.246 C 326.659 271.546,325.630 272.014,325.405 272.285 C 325.180 272.556,324.534 272.880,323.971 273.004 C 323.407 273.127,322.574 273.522,322.118 273.880 C 321.662 274.239,320.634 274.708,319.833 274.924 C 319.033 275.140,318.196 275.535,317.974 275.802 C 317.752 276.069,316.865 276.486,316.002 276.727 C 315.139 276.969,314.351 277.380,314.251 277.640 C 314.151 277.900,313.500 278.220,312.804 278.351 C 312.108 278.481,311.175 278.874,310.730 279.224 C 310.286 279.574,309.248 280.042,308.424 280.264 C 307.601 280.485,306.927 280.795,306.927 280.951 C 306.927 281.322,305.298 282.060,304.479 282.060 C 304.128 282.060,303.559 282.371,303.215 282.751 C 302.872 283.130,302.088 283.545,301.473 283.672 C 300.858 283.799,299.796 284.273,299.112 284.725 C 298.428 285.176,297.360 285.651,296.739 285.780 C 296.117 285.908,295.425 286.235,295.200 286.506 C 294.976 286.776,294.206 287.189,293.488 287.422 C 292.771 287.656,291.803 288.144,291.338 288.506 C 290.872 288.869,290.269 289.165,289.999 289.165 C 289.728 289.165,288.608 289.645,287.510 290.231 C 286.411 290.817,285.315 291.297,285.073 291.297 C 284.832 291.297,284.436 291.536,284.193 291.828 C 283.951 292.120,283.092 292.547,282.285 292.776 C 281.477 293.006,280.497 293.473,280.107 293.815 C 279.716 294.157,278.808 294.545,278.089 294.678 C 277.369 294.810,276.701 295.126,276.604 295.380 C 276.507 295.633,275.629 296.106,274.653 296.430 C 273.677 296.754,272.701 297.234,272.484 297.496 C 272.266 297.758,271.551 298.073,270.893 298.196 C 270.236 298.319,269.510 298.648,269.279 298.926 C 269.048 299.203,268.273 299.622,267.556 299.856 C 266.839 300.090,265.885 300.566,265.436 300.915 C 264.987 301.264,264.108 301.658,263.482 301.791 C 262.857 301.924,262.097 302.251,261.794 302.517 C 261.491 302.783,260.540 303.249,259.680 303.552 C 258.820 303.856,257.869 304.322,257.566 304.588 C 257.264 304.854,256.504 305.181,255.878 305.314 C 255.252 305.447,254.370 305.847,253.918 306.202 C 253.465 306.558,252.419 307.052,251.592 307.300 C 250.765 307.547,250.089 307.872,250.089 308.022 C 250.089 308.171,249.489 308.487,248.757 308.724 C 248.024 308.961,246.771 309.533,245.972 309.995 C 245.174 310.457,244.276 310.835,243.978 310.835 C 243.679 310.835,243.048 311.139,242.575 311.511 C 242.103 311.883,241.042 312.369,240.218 312.590 C 239.395 312.812,238.721 313.141,238.721 313.321 C 238.721 313.502,237.895 313.894,236.886 314.194 C 235.876 314.494,234.797 314.965,234.488 315.241 C 234.179 315.516,233.265 315.918,232.457 316.133 C 231.649 316.348,230.794 316.758,230.556 317.045 C 230.319 317.331,229.541 317.665,228.828 317.786 C 228.114 317.907,227.102 318.308,226.578 318.677 C 226.053 319.045,224.884 319.513,223.980 319.716 C 223.075 319.918,221.930 320.350,221.435 320.674 C 220.693 321.160,218.998 321.315,211.777 321.554 C 206.960 321.714,202.060 322.009,200.888 322.211 C 198.589 322.607,190.290 323.046,173.712 323.649 C 167.948 323.859,161.874 324.175,160.213 324.351 C 155.144 324.891,94.691 325.187,86.323 324.714 C 77.654 324.223,72.793 323.627,71.984 322.954 C 71.049 322.176,71.263 257.574,72.204 256.597 C 72.546 256.241,73.353 255.294,73.997 254.492 C 75.648 252.437,81.906 247.247,82.733 247.247 C 82.919 247.247,83.523 246.869,84.076 246.407 C 84.628 245.946,85.480 245.446,85.968 245.298 C 86.456 245.149,87.142 244.727,87.492 244.361 C 87.841 243.994,88.330 243.694,88.577 243.694 C 88.825 243.694,89.569 243.295,90.231 242.806 C 90.893 242.318,91.692 241.918,92.007 241.918 C 92.322 241.918,93.121 241.519,93.783 241.030 C 94.445 240.542,95.239 240.142,95.546 240.142 C 95.854 240.142,96.693 239.742,97.412 239.254 C 98.131 238.766,98.927 238.365,99.182 238.365 C 99.436 238.364,100.604 237.885,101.776 237.300 C 102.948 236.716,104.122 236.237,104.384 236.236 C 104.647 236.235,105.245 235.933,105.714 235.564 C 106.182 235.195,107.167 234.782,107.901 234.646 C 108.635 234.510,109.716 234.110,110.302 233.756 C 110.888 233.403,111.927 233.000,112.611 232.860 C 113.295 232.720,114.353 232.303,114.962 231.933 C 115.571 231.564,116.387 231.261,116.774 231.261 C 117.162 231.261,118.214 230.870,119.112 230.392 C 120.011 229.915,121.354 229.416,122.096 229.283 C 122.838 229.151,123.925 228.760,124.512 228.415 C 125.098 228.069,126.421 227.610,127.452 227.394 C 128.484 227.178,129.683 226.773,130.117 226.493 C 130.551 226.214,131.544 225.868,132.324 225.726 C 133.104 225.583,134.446 225.091,135.307 224.634 C 136.169 224.176,137.241 223.801,137.690 223.801 C 138.139 223.801,139.258 223.401,140.176 222.913 C 141.095 222.425,142.134 222.025,142.485 222.025 C 142.837 222.025,143.876 221.625,144.794 221.137 C 145.713 220.648,146.772 220.249,147.148 220.249 C 147.523 220.249,148.499 219.867,149.315 219.400 C 150.131 218.934,151.383 218.450,152.096 218.325 C 152.809 218.200,153.584 217.867,153.819 217.584 C 154.053 217.302,154.829 216.965,155.542 216.835 C 156.255 216.706,157.478 216.242,158.259 215.803 C 159.041 215.365,160.229 214.905,160.900 214.781 C 161.571 214.658,162.399 214.304,162.740 213.996 C 163.081 213.687,164.048 213.280,164.889 213.091 C 165.731 212.902,166.690 212.503,167.021 212.203 C 167.352 211.904,168.295 211.508,169.118 211.323 C 169.940 211.138,170.989 210.691,171.449 210.329 C 171.909 209.968,172.886 209.560,173.620 209.424 C 174.355 209.288,175.224 208.935,175.552 208.641 C 175.880 208.347,176.821 207.955,177.644 207.770 C 178.466 207.586,179.538 207.120,180.026 206.737 C 180.514 206.353,181.171 206.034,181.487 206.028 C 181.802 206.022,183.015 205.542,184.183 204.962 C 185.350 204.382,186.569 203.908,186.892 203.908 C 187.215 203.908,187.678 203.669,187.920 203.377 C 188.162 203.086,189.021 202.671,189.828 202.456 C 190.636 202.241,191.565 201.826,191.893 201.533 C 192.221 201.241,193.164 200.850,193.989 200.665 C 194.814 200.479,195.904 200.034,196.412 199.675 C 196.920 199.316,197.842 198.913,198.461 198.779 C 199.080 198.645,199.924 198.242,200.337 197.884 C 200.750 197.526,201.674 197.123,202.390 196.989 C 203.106 196.854,204.068 196.449,204.527 196.088 C 204.986 195.727,205.874 195.319,206.500 195.183 C 207.126 195.046,208.019 194.635,208.485 194.270 C 208.951 193.905,209.590 193.605,209.906 193.604 C 210.221 193.604,211.439 193.125,212.611 192.540 C 213.783 191.955,215.001 191.476,215.316 191.476 C 215.632 191.475,216.289 191.160,216.777 190.777 C 217.265 190.393,218.337 189.928,219.159 189.743 C 219.982 189.558,220.923 189.174,221.251 188.888 C 222.385 187.902,224.366 187.629,225.601 188.290 M327.758 213.435 C 327.995 213.568,328.593 214.272,329.086 214.999 L 329.982 216.321 328.931 218.640 C 328.352 219.915,327.716 220.959,327.516 220.959 C 327.317 220.959,327.055 221.239,326.936 221.581 C 326.611 222.506,314.004 235.408,309.840 239.076 C 308.842 239.956,307.263 241.394,306.331 242.274 C 303.685 244.771,299.353 248.313,298.943 248.313 C 298.739 248.313,298.382 248.618,298.149 248.991 C 297.916 249.364,297.249 249.774,296.667 249.902 C 296.085 250.030,295.425 250.355,295.202 250.625 C 294.978 250.895,293.888 251.301,292.779 251.527 C 291.671 251.754,290.517 252.157,290.216 252.423 C 289.915 252.689,288.796 253.088,287.730 253.309 C 286.663 253.531,285.427 253.942,284.983 254.223 C 284.539 254.504,283.275 254.901,282.174 255.104 C 281.073 255.308,279.826 255.701,279.402 255.979 C 278.977 256.257,277.727 256.652,276.623 256.856 C 275.519 257.060,273.933 257.520,273.098 257.879 C 272.264 258.238,270.773 258.632,269.785 258.754 C 268.797 258.876,267.365 259.294,266.601 259.683 C 264.112 260.952,262.361 260.268,263.346 258.411 C 264.435 256.358,281.669 239.446,290.919 231.352 C 291.981 230.423,293.259 229.265,293.760 228.780 C 294.633 227.935,298.923 224.284,300.982 222.634 C 301.522 222.201,302.310 221.488,302.733 221.048 C 303.157 220.608,303.656 220.249,303.842 220.249 C 304.029 220.249,304.540 219.889,304.978 219.449 C 305.944 218.480,308.552 216.881,309.769 216.512 C 310.258 216.364,311.015 215.964,311.453 215.622 C 311.891 215.280,312.850 214.889,313.585 214.753 C 314.319 214.616,315.190 214.263,315.519 213.967 C 316.618 212.982,326.206 212.564,327.758 213.435 M283.594 224.560 C 284.020 224.782,284.408 224.994,284.456 225.031 C 284.655 225.187,283.083 228.064,282.799 228.064 C 282.133 228.064,262.509 247.298,255.940 254.389 C 254.383 256.070,251.763 258.902,250.118 260.681 C 247.361 263.665,247.001 263.934,245.500 264.127 C 244.605 264.242,242.593 264.633,241.030 264.997 C 239.467 265.360,235.275 265.841,231.714 266.066 C 228.154 266.290,224.769 266.610,224.191 266.775 C 223.379 267.008,223.017 266.937,222.584 266.458 C 221.518 265.281,221.930 264.540,225.068 261.982 C 226.741 260.619,228.449 259.143,228.862 258.703 C 229.275 258.264,229.766 257.904,229.952 257.904 C 230.139 257.904,230.656 257.544,231.102 257.105 C 231.547 256.665,232.495 255.826,233.207 255.240 C 233.919 254.654,234.735 253.960,235.019 253.699 C 235.303 253.438,236.372 252.601,237.395 251.841 C 240.222 249.738,240.798 249.281,241.916 248.253 C 242.484 247.733,243.276 247.202,243.676 247.075 C 244.077 246.948,244.405 246.699,244.405 246.522 C 244.405 246.344,244.925 245.932,245.560 245.605 C 246.194 245.277,246.923 244.714,247.178 244.352 C 247.434 243.990,247.828 243.694,248.054 243.694 C 248.280 243.694,248.791 243.371,249.188 242.975 C 250.432 241.738,253.089 239.794,253.540 239.790 C 253.777 239.788,254.143 239.467,254.352 239.076 C 254.561 238.686,254.941 238.366,255.197 238.366 C 255.453 238.366,255.942 238.057,256.283 237.681 C 256.624 237.304,257.408 236.739,258.025 236.425 C 258.642 236.111,259.867 235.304,260.746 234.630 C 261.625 233.957,262.809 233.147,263.377 232.829 C 263.945 232.511,264.584 232.106,264.798 231.928 C 265.802 231.091,267.807 229.783,269.094 229.123 C 269.876 228.723,270.915 228.163,271.403 227.879 C 271.892 227.596,272.578 227.362,272.927 227.359 C 273.277 227.356,273.997 227.040,274.526 226.656 C 275.055 226.272,276.448 225.805,277.620 225.618 C 278.792 225.430,280.311 225.031,280.995 224.731 C 282.515 224.063,282.623 224.055,283.594 224.560 M62.674 231.464 C 63.583 232.373,63.521 336.691,62.611 337.805 L 61.989 338.566 42.156 338.466 C 22.994 338.369,22.305 338.343,21.818 337.676 C 20.958 336.499,21.073 231.792,21.936 231.290 C 23.083 230.621,61.998 230.788,62.674 231.464 " stroke="none" fill="#0c0c0c" fill-rule="evenodd"></path></g></svg>