<svg xmlns="http://www.w3.org/2000/svg" xmlns:xlink="http://www.w3.org/1999/xlink" id="svg" width="400" height="266.182" version="1.1" viewBox="0 0 400 266.182"><g id="svgg"><path id="path0" fill="#08a9b7" fill-rule="evenodd" stroke="none" d="M234.594 97.713 C 227.466 97.927,227.052 98.354,229.142 103.329 C 230.776 107.216,231.180 108.483,231.020 109.211 C 230.844 110.013,227.142 113.600,224.501 115.529 C 223.695 116.117,222.717 116.848,222.328 117.154 C 221.939 117.460,221.511 117.710,221.377 117.710 C 221.243 117.710,220.663 118.066,220.087 118.501 C 219.512 118.937,218.915 119.296,218.760 119.300 C 218.605 119.304,218.073 119.607,217.577 119.973 C 217.080 120.340,216.365 120.639,215.986 120.639 C 215.281 120.639,212.291 118.485,209.333 115.846 C 207.075 113.831,205.901 113.752,205.392 115.579 C 205.208 116.238,204.768 117.676,204.413 118.775 C 204.058 119.874,203.693 121.254,203.602 121.843 C 203.370 123.341,202.386 124.987,201.592 125.208 C 198.645 126.026,192.060 126.417,189.081 125.950 C 188.129 125.800,186.631 125.608,185.752 125.522 C 184.874 125.437,183.784 125.144,183.332 124.872 L 182.510 124.377 181.601 125.481 C 181.101 126.088,179.943 127.475,179.028 128.563 C 178.113 129.652,177.364 130.639,177.364 130.757 C 177.364 130.875,176.884 131.733,176.298 132.663 C 175.712 133.593,174.929 134.953,174.558 135.686 C 172.985 138.793,172.607 139.451,172.200 139.789 C 171.964 139.985,171.771 140.405,171.771 140.722 C 171.771 141.039,171.530 141.772,171.234 142.351 C 170.490 143.811,170.675 144.075,172.446 144.075 C 174.923 144.075,174.967 144.137,174.967 147.670 C 174.967 151.395,175.058 151.312,170.989 151.248 C 167.514 151.192,167.628 151.135,167.425 153.054 C 167.336 153.901,167.011 155.313,166.703 156.192 C 165.949 158.343,165.700 161.410,166.243 161.861 C 166.559 162.123,177.556 162.174,218.940 162.106 C 271.779 162.019,274.852 161.964,276.514 161.074 C 276.794 160.924,277.879 160.566,278.924 160.278 C 279.970 159.990,281.065 159.600,281.358 159.411 C 281.651 159.223,282.370 158.913,282.956 158.722 C 283.542 158.532,284.439 158.094,284.949 157.750 C 285.459 157.406,285.966 157.124,286.075 157.124 C 286.255 157.124,288.954 155.466,289.611 154.951 C 293.449 151.946,297.475 147.926,298.414 146.163 C 298.621 145.773,298.887 145.413,299.005 145.364 C 299.223 145.271,300.025 143.991,301.071 142.067 C 303.923 136.821,304.160 136.059,303.204 135.207 C 302.842 134.884,302.174 133.901,301.721 133.023 C 301.267 132.144,300.613 131.125,300.266 130.759 C 299.920 130.393,299.216 129.393,298.702 128.538 C 296.740 125.270,284.731 113.022,282.471 111.984 C 281.609 111.588,280.380 110.768,279.627 110.085 C 279.261 109.754,278.123 109.042,277.097 108.504 C 276.072 107.966,274.986 107.300,274.683 107.025 C 274.381 106.750,273.989 106.525,273.813 106.525 C 273.636 106.525,272.818 106.165,271.995 105.726 C 271.171 105.286,270.358 104.927,270.187 104.927 C 270.017 104.927,269.471 104.627,268.975 104.261 C 268.478 103.895,267.868 103.595,267.618 103.595 C 267.369 103.595,266.514 103.253,265.718 102.834 C 264.923 102.416,263.802 101.986,263.228 101.878 C 262.654 101.771,261.573 101.394,260.827 101.041 C 260.080 100.688,259.028 100.399,258.488 100.399 C 257.949 100.399,256.795 100.100,255.925 99.734 C 255.055 99.368,253.831 99.064,253.204 99.059 C 252.577 99.054,251.105 98.865,249.933 98.639 C 248.762 98.413,246.605 98.128,245.140 98.005 C 243.675 97.881,241.877 97.730,241.145 97.669 C 240.413 97.607,237.465 97.627,234.594 97.713 M217.843 100.708 C 217.330 100.857,216.791 101.078,216.644 101.197 C 216.498 101.317,215.659 101.614,214.780 101.859 C 213.901 102.103,212.703 102.529,212.117 102.805 C 211.531 103.081,210.752 103.367,210.386 103.440 C 209.623 103.592,207.457 105.112,207.457 105.495 C 207.457 105.635,207.815 105.955,208.254 106.204 C 208.692 106.454,209.052 106.746,209.053 106.854 C 209.054 106.962,209.504 107.351,210.053 107.719 C 211.561 108.727,212.564 109.458,214.392 110.878 C 216.246 112.319,216.964 112.386,218.380 111.253 C 218.793 110.923,219.812 110.173,220.645 109.587 C 223.044 107.899,223.362 106.360,221.905 103.484 C 221.689 103.057,221.371 102.218,221.198 101.620 C 220.847 100.403,219.831 100.126,217.843 100.708 M198.136 109.980 C 198.136 110.123,197.781 110.423,197.348 110.647 C 196.914 110.871,196.271 111.323,195.917 111.652 C 195.563 111.981,194.835 112.550,194.297 112.916 C 187.462 117.574,187.082 119.041,192.712 119.041 C 196.757 119.041,197.214 118.887,197.613 117.389 C 197.781 116.760,198.205 115.346,198.557 114.248 C 199.621 110.918,199.696 109.720,198.838 109.720 C 198.452 109.720,198.136 109.837,198.136 109.980 M188.849 144.514 C 189.310 145.070,189.502 149.508,189.109 150.533 C 188.828 151.265,188.827 151.265,186.141 151.265 C 182.335 151.265,182.423 151.351,182.423 147.683 L 182.423 144.652 183.156 144.384 C 184.443 143.914,188.426 144.005,188.849 144.514 M203.172 144.445 C 203.376 144.692,203.454 145.873,203.404 147.974 L 203.329 151.132 200.000 151.132 L 196.671 151.132 196.596 147.974 C 196.500 143.945,196.387 144.075,200.000 144.075 C 202.122 144.075,202.944 144.171,203.172 144.445 M216.738 144.367 L 217.577 144.659 217.577 147.686 C 217.577 150.407,217.524 150.742,217.061 150.989 C 216.417 151.334,211.726 151.346,211.185 151.004 C 210.634 150.656,210.606 145.172,211.151 144.515 C 211.588 143.988,215.364 143.888,216.738 144.367 M231.099 144.489 C 231.791 144.974,232.016 150.301,231.372 150.945 C 230.971 151.346,226.280 151.381,225.548 150.989 C 224.805 150.591,224.762 144.792,225.499 144.362 C 226.271 143.913,230.411 144.007,231.099 144.489 M307.114 145.722 C 306.936 145.900,306.791 146.186,306.791 146.359 C 306.791 146.531,306.602 146.829,306.372 147.020 C 306.142 147.211,305.717 147.830,305.429 148.395 C 305.141 148.961,304.728 149.628,304.513 149.878 C 304.297 150.128,303.373 151.231,302.460 152.329 C 300.444 154.752,299.192 156.001,296.331 158.446 C 295.127 159.475,293.936 160.493,293.686 160.707 C 293.436 160.921,292.755 161.339,292.173 161.636 C 291.591 161.933,291.048 162.284,290.967 162.416 C 290.525 163.131,281.644 167.057,279.738 167.379 C 279.164 167.477,278.031 167.777,277.219 168.046 C 275.763 168.530,273.971 168.800,271.105 168.968 C 270.300 169.015,246.250 169.066,217.662 169.081 C 170.787 169.105,165.643 169.149,165.265 169.526 C 164.925 169.867,164.847 170.637,164.847 173.654 C 164.847 177.757,164.963 177.963,166.711 176.964 C 168.697 175.829,169.420 176.333,177.386 184.405 C 181.009 188.075,184.055 191.159,184.155 191.258 C 184.548 191.648,183.869 192.751,182.268 194.323 C 179.650 196.894,180.130 197.000,175.985 192.927 C 171.312 188.334,171.638 187.962,171.638 197.894 L 171.638 205.558 172.345 206.308 C 172.735 206.720,173.249 207.477,173.488 207.989 C 174.291 209.712,175.030 211.047,175.533 211.687 C 175.807 212.036,176.032 212.501,176.032 212.720 C 176.032 212.939,176.421 213.570,176.897 214.123 C 177.374 214.676,178.362 215.992,179.095 217.047 C 180.530 219.116,183.132 222.261,185.161 224.378 C 185.855 225.102,186.490 225.906,186.572 226.163 C 186.653 226.421,186.821 226.631,186.944 226.631 C 187.067 226.631,188.467 227.964,190.055 229.594 C 191.644 231.223,193.362 232.733,193.875 232.949 C 194.387 233.165,195.005 233.517,195.246 233.732 C 196.547 234.887,196.538 235.092,196.538 205.156 C 196.538 189.894,196.611 177.218,196.700 176.986 C 196.834 176.635,197.384 176.565,200.000 176.565 C 202.616 176.565,203.166 176.635,203.300 176.986 C 203.389 177.218,203.462 190.023,203.462 205.441 C 203.462 232.628,203.529 235.153,204.244 235.153 C 204.352 235.153,205.797 233.766,207.453 232.071 C 211.919 227.500,211.536 227.573,214.615 230.715 C 216.559 232.699,216.503 232.851,212.232 237.173 C 210.338 239.089,208.789 240.767,208.789 240.901 C 208.790 241.349,211.304 242.821,212.383 243.006 C 212.969 243.106,213.652 243.370,213.900 243.593 C 214.149 243.815,215.186 244.157,216.206 244.351 C 217.225 244.545,218.520 244.936,219.083 245.218 C 219.646 245.501,220.765 245.817,221.570 245.920 C 222.375 246.023,224.113 246.384,225.432 246.722 C 230.603 248.048,248.737 248.139,251.931 246.856 C 252.590 246.591,254.315 246.181,255.763 245.945 C 257.212 245.708,258.830 245.329,259.358 245.102 C 259.887 244.876,261.039 244.470,261.917 244.201 C 264.625 243.372,266.668 242.616,267.679 242.069 C 268.212 241.780,268.892 241.545,269.190 241.545 C 269.489 241.545,270.072 241.261,270.486 240.913 C 270.900 240.566,271.639 240.195,272.129 240.088 C 272.619 239.981,273.261 239.616,273.556 239.276 C 273.852 238.936,274.410 238.579,274.796 238.483 C 275.183 238.386,275.679 238.149,275.899 237.956 C 276.289 237.612,277.622 236.815,279.228 235.966 C 279.667 235.733,280.859 234.856,281.876 234.017 C 282.893 233.177,283.843 232.490,283.986 232.490 C 284.579 232.490,292.410 225.095,292.410 224.535 C 292.410 224.405,292.670 224.127,292.988 223.915 C 294.496 222.914,294.151 222.903,262.293 222.903 C 229.171 222.903,230.384 222.951,229.161 221.580 C 228.645 221.002,228.624 220.508,228.495 205.606 C 228.385 192.834,228.298 190.150,227.983 189.771 C 227.636 189.354,227.289 189.628,223.980 192.931 L 220.356 196.548 219.481 195.902 C 218.139 194.912,216.062 192.692,215.849 192.021 C 215.684 191.502,216.260 190.814,220.062 186.988 C 222.483 184.551,225.522 181.474,226.813 180.151 C 231.929 174.909,231.640 174.818,241.366 184.721 C 248.950 192.443,248.572 191.577,245.685 194.607 C 243.545 196.855,243.575 196.863,239.702 192.943 C 236.135 189.333,236.064 189.286,235.679 190.297 C 235.200 191.557,235.343 214.685,235.834 215.387 L 236.249 215.979 267.543 215.979 C 301.162 215.979,299.457 216.058,300.419 214.451 C 300.748 213.900,301.268 213.170,301.572 212.830 C 301.877 212.490,302.367 211.740,302.661 211.163 C 306.293 204.042,307.059 202.483,307.058 202.209 C 307.058 202.032,307.357 201.446,307.723 200.907 C 308.089 200.367,308.389 199.577,308.389 199.152 C 308.389 198.726,308.688 197.815,309.055 197.127 C 309.421 196.439,309.720 195.536,309.720 195.120 C 309.720 194.704,310.012 193.505,310.368 192.455 C 310.724 191.405,311.101 189.707,311.205 188.682 C 311.309 187.656,311.630 186.158,311.919 185.353 C 312.960 182.450,313.025 164.415,312.007 160.852 C 311.777 160.047,311.456 158.309,311.294 156.991 C 311.118 155.553,310.744 154.051,310.360 153.237 C 310.008 152.490,309.720 151.486,309.720 151.006 C 309.720 150.526,309.437 149.459,309.090 148.635 C 308.743 147.811,308.354 146.787,308.225 146.360 C 307.956 145.472,307.580 145.256,307.114 145.722"/><path id="path1" fill="#005e5e" fill-rule="evenodd" stroke="none" d="M187.217 19.415 C 184.388 19.734,183.501 20.255,183.493 21.602 C 183.491 21.985,183.225 22.633,182.903 23.042 C 182.521 23.529,182.247 24.379,182.112 25.498 C 181.999 26.439,181.677 27.589,181.398 28.052 C 181.119 28.516,180.812 29.314,180.716 29.827 C 180.397 31.541,180.059 31.741,178.611 31.072 C 177.922 30.753,177.292 30.283,177.210 30.027 C 177.128 29.770,176.894 29.561,176.689 29.561 C 176.484 29.561,175.959 29.231,175.521 28.828 C 175.084 28.425,174.232 27.736,173.629 27.297 C 173.025 26.858,172.150 26.156,171.685 25.739 C 170.699 24.854,168.212 24.797,167.735 25.648 C 167.602 25.886,166.988 26.305,166.370 26.579 C 165.752 26.853,165.082 27.276,164.881 27.520 C 164.680 27.763,164.293 27.963,164.021 27.963 C 163.750 27.963,163.331 28.262,163.091 28.628 C 162.851 28.995,162.535 29.294,162.388 29.294 C 162.241 29.294,161.686 29.660,161.154 30.108 C 160.622 30.556,159.792 31.245,159.309 31.639 C 158.827 32.034,158.022 32.746,157.521 33.222 C 157.019 33.698,156.485 34.088,156.334 34.088 C 156.182 34.088,156.059 34.259,156.059 34.468 C 156.059 34.678,155.873 35.034,155.646 35.261 C 155.352 35.555,155.307 35.809,155.487 36.146 C 155.626 36.405,155.825 37.188,155.930 37.886 C 156.034 38.583,156.335 39.428,156.598 39.762 C 156.861 40.097,157.204 41.062,157.361 41.907 C 157.517 42.752,157.887 43.751,158.183 44.128 C 158.882 45.015,158.915 46.879,158.244 47.487 C 157.825 47.866,157.444 47.885,155.115 47.638 C 153.657 47.484,151.254 47.298,149.777 47.225 L 147.090 47.091 146.381 47.934 C 145.974 48.418,145.672 49.101,145.672 49.541 C 145.672 49.987,145.395 50.604,145.007 51.024 C 144.638 51.422,144.341 52.063,144.341 52.463 C 144.341 52.859,144.039 53.750,143.671 54.443 C 143.302 55.136,142.890 56.485,142.755 57.440 C 142.620 58.395,142.311 59.396,142.069 59.663 C 140.795 61.071,141.154 65.212,142.638 66.230 C 143.024 66.494,143.623 66.973,143.969 67.293 C 144.315 67.614,144.876 68.033,145.215 68.226 C 146.981 69.226,147.692 69.693,148.244 70.219 C 148.578 70.537,149.095 70.875,149.393 70.969 C 150.949 71.463,150.332 73.737,148.445 74.457 C 147.799 74.704,147.270 75.061,147.270 75.251 C 147.270 75.441,147.001 75.681,146.671 75.784 C 146.342 75.886,145.700 76.284,145.246 76.667 C 144.791 77.050,144.018 77.603,143.528 77.896 C 143.037 78.189,142.392 78.574,142.094 78.751 C 141.039 79.378,141.080 83.345,142.161 85.240 C 142.447 85.742,142.758 86.871,142.851 87.750 C 142.944 88.628,143.237 89.647,143.501 90.013 C 143.765 90.379,144.123 91.394,144.297 92.268 C 144.470 93.142,144.787 93.955,145.001 94.074 C 145.215 94.194,145.522 94.797,145.684 95.415 C 146.149 97.196,146.180 97.204,152.461 97.204 C 156.478 97.204,158.174 97.295,158.402 97.523 C 158.907 98.028,158.791 99.973,158.213 100.708 C 157.933 101.064,157.576 102.047,157.420 102.892 C 157.263 103.737,156.904 104.723,156.621 105.082 C 156.108 105.735,155.646 107.931,155.758 109.188 C 155.823 109.917,160.614 114.780,161.268 114.780 C 161.468 114.780,161.756 115.012,161.908 115.295 C 162.059 115.578,162.453 115.894,162.783 115.997 C 163.112 116.100,163.776 116.527,164.257 116.947 C 164.738 117.366,165.293 117.710,165.489 117.710 C 165.686 117.710,166.010 117.906,166.209 118.146 C 166.408 118.385,167.053 118.788,167.643 119.041 C 168.233 119.294,168.873 119.690,169.065 119.921 C 169.470 120.409,169.998 120.270,171.059 119.395 C 171.473 119.054,171.974 118.775,172.173 118.775 C 172.372 118.775,172.610 118.535,172.703 118.242 C 172.796 117.949,173.039 117.710,173.243 117.710 C 173.447 117.710,173.983 117.380,174.436 116.977 C 176.222 115.386,176.495 115.156,177.379 114.489 C 179.605 112.811,180.406 112.914,180.707 114.917 C 180.806 115.578,181.115 116.408,181.393 116.761 C 181.711 117.165,181.996 118.169,182.159 119.457 C 182.341 120.888,182.561 121.613,182.887 121.852 C 183.243 122.112,183.342 122.519,183.300 123.544 C 183.233 125.142,183.415 125.288,185.752 125.520 C 186.631 125.607,188.129 125.800,189.081 125.950 C 192.060 126.417,198.645 126.026,201.592 125.208 C 202.386 124.987,203.370 123.341,203.602 121.843 C 203.693 121.254,204.058 119.874,204.413 118.775 C 204.768 117.676,205.208 116.238,205.392 115.579 C 205.901 113.752,207.075 113.831,209.333 115.846 C 212.291 118.485,215.281 120.639,215.986 120.639 C 216.365 120.639,217.080 120.340,217.577 119.973 C 218.073 119.607,218.605 119.304,218.760 119.300 C 218.915 119.296,219.512 118.937,220.087 118.501 C 220.663 118.066,221.243 117.710,221.377 117.710 C 221.511 117.710,221.939 117.460,222.328 117.154 C 222.717 116.848,223.695 116.117,224.501 115.529 C 227.142 113.600,230.844 110.013,231.020 109.211 C 231.180 108.483,230.776 107.216,229.142 103.329 C 228.804 102.523,228.410 101.343,228.267 100.707 C 228.125 100.071,227.736 99.260,227.403 98.906 C 226.290 97.722,226.844 97.603,233.494 97.603 L 239.529 97.603 239.731 96.429 C 239.842 95.783,240.170 95.003,240.459 94.695 C 240.749 94.387,241.069 93.609,241.172 92.966 C 241.275 92.323,241.578 91.578,241.845 91.310 C 242.134 91.022,242.448 90.095,242.618 89.029 C 242.776 88.041,243.127 86.870,243.398 86.426 C 244.566 84.517,244.653 78.828,243.515 78.828 C 243.317 78.828,242.958 78.529,242.719 78.162 C 242.479 77.796,242.075 77.497,241.822 77.497 C 241.568 77.497,241.133 77.245,240.854 76.937 C 240.575 76.629,239.988 76.192,239.548 75.965 C 239.108 75.739,238.592 75.331,238.400 75.060 C 238.209 74.789,237.884 74.567,237.677 74.567 C 237.010 74.567,235.419 72.956,235.419 72.279 C 235.419 71.655,236.307 70.897,238.404 69.727 C 238.845 69.481,239.436 69.032,239.719 68.728 C 240.002 68.424,240.388 68.176,240.576 68.176 C 240.765 68.176,241.192 67.886,241.524 67.531 C 241.857 67.177,242.483 66.741,242.915 66.562 C 244.558 65.881,244.867 60.894,243.395 58.811 C 243.119 58.420,242.763 57.285,242.604 56.287 C 242.428 55.185,242.125 54.297,241.834 54.025 C 241.564 53.774,241.276 52.995,241.177 52.251 C 241.081 51.521,240.776 50.638,240.501 50.288 C 240.227 49.939,239.895 49.117,239.766 48.462 L 239.529 47.270 236.476 47.276 C 234.796 47.279,232.344 47.439,231.025 47.631 C 227.421 48.158,225.687 46.968,227.287 45.067 C 227.660 44.624,227.986 43.790,228.095 43.001 C 228.195 42.273,228.509 41.349,228.792 40.947 C 229.075 40.546,229.423 39.608,229.564 38.863 C 229.705 38.118,230.062 37.202,230.357 36.827 C 230.651 36.453,230.892 36.041,230.892 35.911 C 230.892 35.648,227.534 32.224,227.276 32.224 C 227.185 32.224,226.773 31.894,226.360 31.491 C 224.655 29.830,224.336 29.561,224.073 29.561 C 223.922 29.561,223.395 29.201,222.903 28.762 C 222.411 28.322,221.849 27.963,221.655 27.963 C 221.460 27.963,221.049 27.673,220.741 27.318 C 220.433 26.964,219.865 26.596,219.478 26.501 C 219.091 26.405,218.448 26.016,218.048 25.636 C 216.998 24.637,215.065 24.647,214.261 25.655 C 213.950 26.045,213.597 26.365,213.478 26.365 C 213.358 26.365,212.427 27.084,211.409 27.963 C 210.390 28.842,209.449 29.561,209.317 29.561 C 209.184 29.561,208.786 29.873,208.432 30.255 C 207.715 31.029,205.550 31.470,205.206 30.914 C 205.102 30.745,204.906 29.820,204.769 28.857 C 204.632 27.891,204.300 26.826,204.027 26.479 C 203.737 26.109,203.456 25.161,203.347 24.177 C 203.127 22.199,201.943 20.229,200.671 19.725 C 199.721 19.349,189.831 19.121,187.217 19.415 M196.297 25.466 C 197.762 25.945,197.997 26.244,198.206 27.889 C 198.285 28.507,198.541 29.205,198.775 29.439 C 199.228 29.891,199.343 30.288,199.601 32.283 C 199.691 32.975,200.115 34.233,200.544 35.079 C 200.974 35.925,201.326 36.768,201.328 36.951 C 201.330 37.134,201.421 37.286,201.531 37.289 C 202.925 37.326,205.196 37.885,205.760 38.328 C 206.629 39.012,207.319 39.033,207.775 38.391 C 207.966 38.121,208.389 37.759,208.716 37.586 C 209.042 37.413,209.596 37.004,209.946 36.678 C 211.039 35.662,212.022 34.885,212.614 34.571 C 212.926 34.405,213.339 34.049,213.530 33.779 C 213.722 33.510,214.041 33.289,214.241 33.289 C 214.440 33.289,214.840 32.963,215.130 32.564 C 216.049 31.303,217.433 31.752,219.850 34.095 C 220.148 34.384,220.520 34.621,220.676 34.621 C 220.833 34.621,221.273 34.890,221.655 35.220 C 222.037 35.549,222.652 36.059,223.023 36.352 C 223.787 36.956,223.914 38.030,223.331 38.957 C 223.127 39.282,222.882 40.103,222.787 40.782 C 222.690 41.473,222.391 42.217,222.108 42.473 C 221.795 42.756,221.535 43.472,221.425 44.356 C 221.317 45.214,220.994 46.124,220.610 46.644 C 219.778 47.772,219.805 48.615,220.706 49.539 C 222.410 51.288,222.632 51.573,222.910 52.371 C 223.300 53.487,223.497 53.521,229.719 53.525 C 235.654 53.529,235.706 53.544,236.042 55.329 C 236.132 55.806,236.437 56.525,236.719 56.927 C 237.001 57.328,237.311 58.316,237.407 59.121 C 237.503 59.927,237.766 60.869,237.991 61.214 C 238.472 61.954,237.119 63.647,235.486 64.349 C 235.010 64.553,234.621 64.837,234.621 64.978 C 234.621 65.120,234.141 65.480,233.555 65.779 C 232.969 66.078,232.490 66.431,232.490 66.564 C 232.490 66.697,232.011 67.017,231.425 67.276 C 230.839 67.534,230.360 67.842,230.360 67.960 C 230.360 68.078,229.989 68.325,229.536 68.510 L 228.713 68.846 228.697 71.906 C 228.678 75.551,228.805 76.039,229.912 76.598 C 230.378 76.833,231.059 77.297,231.425 77.630 C 231.791 77.963,232.360 78.317,232.690 78.417 C 233.019 78.516,233.289 78.707,233.289 78.841 C 233.289 78.974,233.774 79.331,234.367 79.634 C 234.960 79.936,235.510 80.352,235.589 80.558 C 235.668 80.764,236.125 81.062,236.604 81.221 C 237.758 81.601,238.538 83.344,237.960 84.247 C 237.758 84.562,237.509 85.511,237.407 86.355 C 237.305 87.199,237.012 88.158,236.756 88.486 C 236.501 88.813,236.198 89.381,236.083 89.747 C 235.969 90.113,235.689 90.698,235.460 91.048 L 235.045 91.683 230.772 91.534 C 228.421 91.453,226.115 91.267,225.646 91.122 C 224.989 90.918,224.723 90.943,224.482 91.234 C 224.310 91.442,224.006 91.611,223.806 91.611 C 223.606 91.611,223.139 92.091,222.770 92.676 C 222.400 93.262,221.979 93.742,221.834 93.742 C 221.690 93.742,221.571 93.959,221.571 94.224 C 221.571 94.490,221.212 95.052,220.772 95.473 C 219.834 96.371,219.752 97.243,220.535 97.973 C 220.984 98.391,221.112 98.866,221.169 100.327 C 221.215 101.501,221.430 102.536,221.769 103.210 C 223.369 106.390,223.111 107.852,220.645 109.587 C 219.812 110.173,218.793 110.923,218.380 111.253 C 216.964 112.386,216.246 112.319,214.392 110.878 C 212.578 109.469,211.568 108.733,210.080 107.736 C 209.545 107.377,209.066 106.988,209.015 106.871 C 208.815 106.414,207.212 105.475,207.058 105.725 C 206.969 105.868,206.214 106.180,205.379 106.419 C 204.544 106.658,203.667 107.024,203.429 107.233 C 203.190 107.442,202.552 107.685,202.009 107.773 C 201.275 107.892,200.957 108.106,200.765 108.611 C 200.624 108.983,200.290 109.441,200.023 109.628 C 199.751 109.818,199.461 110.467,199.362 111.109 C 199.265 111.737,198.900 113.149,198.552 114.248 C 198.203 115.346,197.781 116.760,197.613 117.389 C 197.393 118.213,197.122 118.604,196.639 118.787 C 195.709 119.141,189.426 119.117,189.204 118.759 C 189.108 118.603,188.749 118.369,188.406 118.239 C 187.798 118.008,187.222 116.667,187.219 115.478 C 187.218 115.202,186.968 114.573,186.663 114.079 C 186.358 113.586,185.989 112.326,185.844 111.279 C 185.542 109.100,185.053 108.188,184.055 107.948 C 183.670 107.856,182.817 107.498,182.159 107.152 C 180.452 106.257,178.244 106.274,177.255 107.191 C 176.859 107.557,176.183 108.040,175.751 108.263 C 175.320 108.486,174.967 108.777,174.967 108.910 C 174.967 109.043,174.719 109.231,174.415 109.327 C 174.112 109.423,173.184 110.150,172.352 110.943 C 170.329 112.871,167.825 113.168,166.976 111.581 C 166.830 111.310,166.442 111.004,166.112 110.901 C 165.782 110.797,165.273 110.494,164.980 110.227 C 162.133 107.629,162.359 107.999,162.544 106.236 C 162.704 104.700,163.075 103.629,163.555 103.313 C 163.679 103.232,163.908 102.453,164.063 101.582 C 164.218 100.712,164.594 99.653,164.899 99.228 C 165.769 98.017,165.714 95.769,164.795 94.996 C 164.409 94.673,164.016 94.138,163.920 93.808 C 163.824 93.479,163.630 93.209,163.488 93.209 C 163.347 93.209,162.978 92.780,162.668 92.255 L 162.105 91.301 156.847 91.492 L 151.589 91.682 150.635 90.955 C 149.955 90.436,149.634 89.949,149.516 89.255 C 149.425 88.720,149.126 87.963,148.852 87.573 C 147.611 85.808,147.634 81.996,148.889 81.347 C 149.301 81.134,149.962 80.660,150.357 80.294 C 150.753 79.927,151.285 79.627,151.540 79.627 C 151.794 79.627,152.199 79.328,152.439 78.961 C 152.679 78.595,153.035 78.296,153.230 78.296 C 153.425 78.296,153.906 77.997,154.300 77.632 C 154.694 77.267,155.319 76.892,155.690 76.799 C 156.063 76.706,156.474 76.340,156.611 75.981 C 156.959 75.063,156.932 68.708,156.579 68.708 C 156.426 68.708,156.031 68.439,155.701 68.109 C 155.371 67.780,154.807 67.358,154.448 67.171 C 153.589 66.726,152.064 65.670,151.405 65.064 C 151.115 64.798,150.576 64.443,150.206 64.275 C 147.717 63.144,147.195 60.710,148.728 57.390 C 149.067 56.658,149.481 55.549,149.649 54.927 C 149.817 54.304,149.980 53.773,150.011 53.746 C 150.041 53.718,152.883 53.629,156.325 53.546 L 162.583 53.395 162.670 52.786 C 162.717 52.451,162.987 52.033,163.269 51.857 C 163.551 51.680,163.782 51.386,163.782 51.202 C 163.782 51.018,164.201 50.403,164.714 49.835 C 165.230 49.264,165.646 48.520,165.646 48.168 C 165.646 47.192,165.177 45.780,164.741 45.443 C 164.526 45.276,164.226 44.452,164.075 43.610 C 163.924 42.769,163.557 41.751,163.259 41.347 C 162.881 40.833,162.667 40.001,162.547 38.575 L 162.376 36.537 163.212 36.104 C 163.672 35.867,164.048 35.558,164.048 35.419 C 164.048 35.280,164.403 34.983,164.836 34.759 C 165.269 34.535,165.913 34.083,166.267 33.754 C 168.162 31.992,170.439 31.305,170.439 32.496 C 170.439 32.635,170.859 32.924,171.372 33.139 C 171.884 33.353,172.304 33.642,172.304 33.782 C 172.304 33.921,172.713 34.277,173.214 34.572 C 174.177 35.141,174.786 35.628,176.019 36.818 C 176.437 37.220,176.888 37.550,177.023 37.550 C 177.157 37.550,177.528 37.850,177.846 38.216 C 178.547 39.022,179.395 39.068,180.169 38.341 C 180.523 38.008,181.401 37.695,182.449 37.527 C 183.387 37.376,184.202 37.117,184.260 36.951 C 184.319 36.784,184.650 36.365,184.996 36.019 C 185.461 35.553,185.695 34.896,185.894 33.496 C 186.041 32.456,186.389 31.234,186.666 30.782 C 186.942 30.330,187.253 29.276,187.355 28.440 C 187.569 26.703,187.785 26.348,189.081 25.605 C 190.308 24.902,194.335 24.824,196.297 25.466 M243.317 37.592 C 243.225 37.935,243.148 39.322,243.146 40.674 C 243.142 43.505,242.940 43.323,246.252 43.471 C 247.566 43.530,248.316 43.696,248.653 44.001 C 248.923 44.244,249.704 44.569,250.389 44.723 C 251.074 44.877,252.077 45.303,252.619 45.670 C 253.160 46.038,253.767 46.338,253.968 46.338 C 254.169 46.338,254.541 46.586,254.796 46.890 C 255.051 47.193,255.639 47.602,256.102 47.799 C 256.984 48.173,257.283 48.398,258.930 49.929 C 259.484 50.444,260.046 50.866,260.177 50.866 C 260.309 50.866,260.491 51.099,260.582 51.385 C 260.672 51.670,260.987 51.980,261.281 52.073 C 261.574 52.166,261.925 52.532,262.059 52.886 C 262.194 53.239,262.482 53.529,262.700 53.529 C 262.919 53.529,263.239 53.798,263.412 54.128 C 263.586 54.457,263.951 54.967,264.225 55.260 C 265.729 56.872,266.578 57.935,266.578 58.206 C 266.578 58.373,266.877 58.834,267.244 59.229 C 267.610 59.624,267.909 60.104,267.909 60.294 C 267.909 60.485,268.198 60.953,268.551 61.334 C 268.905 61.715,269.274 62.391,269.371 62.837 C 269.469 63.283,269.774 63.805,270.048 63.997 C 270.323 64.189,270.663 64.860,270.804 65.488 C 270.945 66.115,271.294 66.887,271.581 67.202 C 271.867 67.518,272.182 68.310,272.281 68.962 C 272.380 69.615,272.686 70.514,272.963 70.961 C 273.251 71.428,273.600 72.789,273.783 74.162 C 273.957 75.476,274.295 76.848,274.534 77.211 C 274.869 77.722,274.987 78.719,275.056 81.612 C 275.161 86.028,275.044 85.848,277.857 85.920 C 279.137 85.953,280.498 86.153,281.070 86.392 C 281.616 86.620,282.852 86.888,283.816 86.986 C 285.033 87.111,285.729 87.327,286.096 87.694 C 286.387 87.984,287.117 88.333,287.720 88.467 C 288.322 88.602,289.115 88.992,289.481 89.333 C 289.847 89.674,290.416 90.035,290.746 90.134 C 291.075 90.234,291.345 90.424,291.345 90.557 C 291.345 90.690,291.734 90.997,292.210 91.239 C 293.109 91.696,293.589 92.098,295.606 94.087 C 297.226 95.684,298.227 96.883,298.693 97.784 C 298.907 98.197,299.187 98.535,299.315 98.535 C 299.443 98.535,299.668 98.877,299.813 99.294 C 299.959 99.712,300.390 100.366,300.771 100.747 C 301.153 101.128,301.465 101.668,301.465 101.946 C 301.465 102.225,301.749 102.759,302.097 103.134 C 302.444 103.509,302.814 104.275,302.919 104.837 C 303.024 105.399,303.326 106.062,303.592 106.310 C 303.871 106.571,304.153 107.356,304.262 108.174 C 304.365 108.951,304.688 109.978,304.979 110.457 C 305.349 111.066,305.576 112.118,305.738 113.975 C 305.882 115.638,306.146 116.950,306.446 117.500 C 307.144 118.778,307.152 126.214,306.457 127.485 C 306.166 128.017,305.905 129.347,305.764 131.016 C 305.614 132.786,305.398 133.850,305.126 134.157 C 304.899 134.412,304.151 135.819,303.464 137.284 C 302.777 138.748,302.089 140.182,301.936 140.469 C 300.224 143.668,299.278 145.248,299.005 145.364 C 298.887 145.413,298.621 145.773,298.414 146.163 C 297.475 147.926,293.449 151.946,289.611 154.951 C 288.954 155.466,286.255 157.124,286.075 157.124 C 285.966 157.124,285.459 157.406,284.949 157.750 C 284.439 158.094,283.542 158.532,282.956 158.722 C 282.370 158.913,281.651 159.223,281.358 159.411 C 281.065 159.600,279.970 159.990,278.924 160.278 C 277.879 160.566,276.794 160.924,276.514 161.074 C 274.851 161.964,271.781 162.019,218.908 162.105 C 172.704 162.179,166.477 162.237,165.720 162.595 C 164.590 163.129,129.675 163.068,128.738 162.530 C 128.431 162.354,126.902 162.080,125.338 161.921 C 123.228 161.707,122.178 161.463,121.262 160.976 C 120.583 160.615,119.643 160.320,119.174 160.320 C 118.645 160.320,118.061 160.079,117.638 159.688 C 117.263 159.340,116.530 158.976,116.009 158.878 C 115.488 158.780,114.909 158.485,114.721 158.221 C 114.534 157.958,114.061 157.663,113.669 157.566 C 113.277 157.470,112.601 157.091,112.166 156.724 C 111.731 156.358,111.241 156.059,111.078 156.059 C 110.915 156.059,110.522 155.759,110.203 155.393 C 109.885 155.027,109.514 154.727,109.379 154.727 C 108.603 154.727,101.465 147.550,101.465 146.771 C 101.465 146.604,101.165 146.207,100.799 145.889 C 100.433 145.571,100.133 145.170,100.133 144.998 C 100.133 144.827,99.774 144.310,99.334 143.850 C 98.895 143.390,98.535 142.772,98.535 142.477 C 98.535 142.181,98.292 141.731,97.995 141.477 C 97.698 141.222,97.329 140.547,97.176 139.976 C 97.022 139.404,96.675 138.625,96.405 138.243 C 96.136 137.862,95.781 136.896,95.618 136.096 C 95.455 135.296,95.128 134.429,94.892 134.168 C 94.598 133.843,94.391 132.849,94.236 131.016 C 94.101 129.425,93.827 127.992,93.560 127.485 C 92.875 126.184,92.881 119.075,93.569 117.577 C 93.860 116.942,94.145 115.440,94.275 113.862 C 94.431 111.953,94.608 111.128,94.910 110.908 C 95.139 110.740,95.459 109.955,95.621 109.163 C 95.783 108.371,96.136 107.411,96.405 107.029 C 96.675 106.648,97.028 105.844,97.190 105.243 C 97.352 104.642,97.615 104.070,97.774 103.972 C 97.933 103.873,98.295 103.269,98.578 102.629 C 98.861 101.989,99.205 101.465,99.343 101.465 C 99.481 101.465,99.779 101.020,100.006 100.477 C 100.233 99.933,100.624 99.283,100.875 99.032 C 101.126 98.781,101.691 98.131,102.130 97.587 C 103.867 95.439,104.482 94.753,105.507 93.821 C 105.700 93.645,106.008 93.345,106.190 93.155 C 106.372 92.965,106.890 92.510,107.342 92.144 C 107.793 91.778,108.480 91.148,108.868 90.746 C 109.255 90.343,109.709 90.013,109.876 90.013 C 110.043 90.013,110.632 89.654,111.185 89.214 C 111.738 88.775,112.333 88.415,112.507 88.415 C 112.681 88.415,113.094 88.127,113.425 87.775 C 113.756 87.423,114.419 87.061,114.899 86.971 C 115.380 86.881,115.985 86.572,116.245 86.285 C 116.505 85.998,117.151 85.689,117.680 85.599 C 118.209 85.510,118.979 85.199,119.391 84.908 C 119.803 84.618,120.932 84.257,121.899 84.106 C 122.867 83.956,124.091 83.607,124.618 83.332 C 125.377 82.937,126.231 82.823,128.712 82.784 C 132.342 82.728,132.183 82.856,132.114 80.056 C 132.035 76.893,131.933 76.614,130.924 76.801 C 130.467 76.886,128.415 77.088,126.365 77.251 C 123.620 77.469,122.359 77.687,121.585 78.078 C 121.006 78.370,119.808 78.725,118.922 78.868 C 118.013 79.014,117.077 79.347,116.775 79.630 C 116.480 79.907,115.732 80.214,115.113 80.313 C 114.493 80.412,113.680 80.778,113.304 81.125 C 112.929 81.473,112.329 81.758,111.970 81.758 C 111.612 81.758,111.084 81.992,110.797 82.279 C 110.510 82.566,109.813 83.037,109.248 83.325 C 108.682 83.613,108.064 84.038,107.872 84.268 C 107.681 84.499,107.377 84.687,107.197 84.687 C 107.017 84.687,106.507 85.017,106.063 85.419 C 104.623 86.725,103.105 87.883,102.832 87.883 C 102.686 87.883,102.496 88.104,102.410 88.375 C 102.324 88.646,101.967 88.998,101.616 89.158 C 101.265 89.318,100.902 89.689,100.808 89.983 C 100.715 90.278,100.405 90.593,100.120 90.683 C 99.834 90.774,99.601 90.949,99.601 91.071 C 99.601 91.194,99.178 91.815,98.661 92.452 C 96.870 94.657,96.268 95.379,95.539 96.196 C 95.136 96.647,94.807 97.238,94.807 97.510 C 94.807 97.781,94.557 98.253,94.251 98.559 C 93.945 98.864,93.533 99.503,93.334 99.978 C 93.136 100.453,92.790 100.994,92.566 101.180 C 92.341 101.366,92.082 101.956,91.989 102.490 C 91.896 103.025,91.546 103.881,91.211 104.394 C 90.876 104.907,90.523 105.887,90.427 106.572 C 90.331 107.258,90.005 108.133,89.702 108.518 C 89.328 108.995,89.080 109.860,88.926 111.233 C 88.796 112.391,88.498 113.545,88.225 113.947 C 87.506 115.005,87.500 130.259,88.218 131.314 C 88.484 131.707,88.807 132.967,88.967 134.244 C 89.154 135.739,89.410 136.662,89.735 137.017 C 90.004 137.310,90.307 138.089,90.409 138.748 C 90.511 139.407,90.871 140.366,91.207 140.879 C 91.544 141.391,91.898 142.259,91.993 142.806 C 92.094 143.384,92.381 143.916,92.676 144.075 C 92.957 144.225,93.262 144.753,93.355 145.250 C 93.448 145.746,93.813 146.403,94.166 146.709 C 94.518 147.016,94.807 147.443,94.807 147.659 C 94.807 147.874,95.166 148.460,95.606 148.961 C 96.045 149.461,96.405 150.018,96.405 150.199 C 96.405 150.380,96.714 150.843,97.092 151.229 C 97.469 151.615,99.185 153.399,100.905 155.193 C 102.625 156.987,104.172 158.455,104.344 158.455 C 104.516 158.455,104.806 158.695,104.989 158.988 C 105.172 159.281,105.461 159.521,105.631 159.521 C 105.802 159.521,106.444 159.940,107.057 160.453 C 107.671 160.965,108.337 161.385,108.538 161.385 C 108.738 161.385,109.029 161.620,109.183 161.908 C 109.337 162.196,109.911 162.553,110.458 162.700 C 111.006 162.847,111.648 163.195,111.885 163.472 C 112.123 163.749,112.781 164.062,113.349 164.167 C 113.916 164.272,114.627 164.586,114.927 164.865 C 115.228 165.145,116.106 165.493,116.879 165.640 C 117.652 165.786,118.579 166.138,118.939 166.422 C 119.358 166.751,120.241 167.003,121.382 167.119 C 122.365 167.219,123.708 167.556,124.368 167.867 C 125.948 168.614,144.609 168.832,218.375 168.963 C 271.359 169.057,274.178 169.014,277.097 168.074 C 277.976 167.791,279.164 167.479,279.738 167.381 C 281.651 167.054,290.526 163.129,290.967 162.416 C 291.048 162.284,291.591 161.933,292.173 161.636 C 292.755 161.339,293.436 160.921,293.686 160.707 C 293.936 160.493,295.127 159.475,296.331 158.446 C 299.192 156.001,300.444 154.752,302.460 152.329 C 303.373 151.231,304.296 150.130,304.510 149.881 C 304.723 149.632,305.099 149.033,305.343 148.549 C 305.588 148.066,306.018 147.417,306.300 147.109 C 306.582 146.800,306.883 146.081,306.971 145.511 C 307.058 144.941,307.275 144.294,307.452 144.075 C 307.630 143.855,307.930 143.103,308.119 142.403 C 308.308 141.703,308.620 141.042,308.813 140.934 C 309.007 140.826,309.342 139.978,309.558 139.051 C 309.775 138.123,310.135 137.161,310.359 136.914 C 310.603 136.644,310.875 135.514,311.035 134.107 C 311.216 132.517,311.457 131.580,311.777 131.227 C 312.476 130.454,312.505 114.332,311.809 113.635 C 311.367 113.193,311.232 112.587,310.906 109.596 C 310.808 108.698,310.523 107.739,310.251 107.394 C 309.986 107.057,309.686 106.177,309.584 105.440 C 309.482 104.695,309.186 103.897,308.920 103.647 C 308.656 103.399,308.298 102.656,308.125 101.997 C 307.951 101.338,307.581 100.553,307.304 100.254 C 307.026 99.954,306.722 99.320,306.627 98.846 C 306.532 98.372,306.258 97.879,306.019 97.751 C 305.780 97.623,305.427 97.084,305.235 96.554 C 305.043 96.024,304.626 95.298,304.307 94.942 C 303.989 94.585,303.429 93.910,303.063 93.441 C 300.593 90.281,295.538 85.757,293.314 84.717 C 292.713 84.436,292.154 84.032,292.072 83.819 C 291.990 83.605,291.437 83.353,290.844 83.258 C 290.250 83.163,289.549 82.854,289.285 82.571 C 288.985 82.249,288.169 81.953,287.113 81.783 C 286.183 81.633,285.138 81.324,284.790 81.097 C 284.443 80.869,283.588 80.611,282.891 80.523 C 280.713 80.247,280.530 80.013,280.352 77.270 C 280.255 75.768,280.040 74.632,279.777 74.230 C 279.546 73.878,279.231 72.581,279.076 71.349 C 278.887 69.836,278.635 68.935,278.302 68.575 C 278.030 68.282,277.678 67.331,277.519 66.462 C 277.360 65.592,277.003 64.634,276.726 64.331 C 276.449 64.029,276.134 63.362,276.026 62.850 C 275.918 62.337,275.556 61.591,275.221 61.191 C 274.886 60.792,274.533 60.103,274.435 59.660 C 274.338 59.217,274.144 58.855,274.004 58.855 C 273.864 58.855,273.518 58.316,273.236 57.656 C 272.953 56.997,272.606 56.458,272.463 56.458 C 272.321 56.458,272.052 56.036,271.866 55.520 C 271.679 55.004,271.252 54.402,270.916 54.182 C 270.581 53.963,270.306 53.650,270.306 53.488 C 270.306 53.047,267.039 49.392,264.749 47.270 C 263.642 46.245,262.457 45.137,262.116 44.808 C 261.775 44.479,261.142 44.027,260.708 43.803 C 260.275 43.578,259.920 43.280,259.920 43.139 C 259.920 42.998,259.476 42.698,258.932 42.471 C 258.389 42.243,257.725 41.822,257.457 41.535 C 257.189 41.247,256.758 41.012,256.499 41.012 C 256.241 41.012,255.619 40.709,255.118 40.340 C 254.616 39.970,253.755 39.595,253.204 39.507 C 252.652 39.419,251.948 39.128,251.640 38.860 C 251.331 38.592,250.521 38.301,249.840 38.213 C 249.159 38.124,247.763 37.874,246.738 37.657 C 245.712 37.439,244.561 37.195,244.179 37.115 C 243.613 36.995,243.453 37.084,243.317 37.592 M189.348 44.633 C 188.835 44.856,187.457 45.155,186.285 45.298 C 184.940 45.463,183.891 45.749,183.440 46.076 C 183.047 46.361,182.227 46.706,181.617 46.843 C 181.007 46.980,180.285 47.331,180.013 47.624 C 179.740 47.916,179.145 48.237,178.689 48.337 C 178.233 48.437,177.794 48.692,177.713 48.903 C 177.632 49.114,177.225 49.463,176.810 49.678 C 176.394 49.893,175.774 50.338,175.432 50.667 C 175.090 50.996,174.216 51.819,173.490 52.496 C 171.975 53.909,170.439 55.759,170.439 56.172 C 170.439 56.327,170.197 56.604,169.900 56.789 C 169.603 56.973,169.239 57.573,169.091 58.121 C 168.943 58.670,168.572 59.351,168.268 59.635 C 167.963 59.919,167.608 60.726,167.477 61.434 C 167.347 62.139,167.062 62.849,166.845 63.010 C 166.605 63.188,166.342 64.130,166.175 65.407 C 166.024 66.564,165.709 68.538,165.476 69.794 C 165.089 71.885,165.089 72.268,165.480 74.321 C 165.714 75.555,166.014 77.619,166.146 78.908 C 166.295 80.362,166.543 81.425,166.800 81.708 C 167.027 81.960,167.347 82.763,167.511 83.493 C 167.675 84.223,168.021 85.060,168.282 85.353 C 168.542 85.646,168.909 86.275,169.097 86.751 C 169.285 87.227,169.525 87.617,169.631 87.617 C 169.736 87.617,170.052 88.054,170.331 88.589 C 170.610 89.124,171.378 90.144,172.037 90.857 C 172.696 91.570,173.655 92.625,174.168 93.202 C 174.680 93.778,175.250 94.255,175.435 94.262 C 175.619 94.269,176.030 94.574,176.348 94.940 C 176.666 95.306,177.069 95.606,177.242 95.606 C 177.415 95.606,178.009 95.965,178.562 96.405 C 179.115 96.844,179.767 97.204,180.012 97.204 C 180.256 97.204,180.850 97.495,181.332 97.850 C 181.815 98.206,182.707 98.577,183.315 98.675 C 183.923 98.772,184.840 99.110,185.353 99.426 C 186.649 100.224,199.320 100.324,200.183 99.543 C 200.460 99.292,201.342 98.951,202.141 98.785 C 202.941 98.620,204.015 98.204,204.527 97.861 C 205.040 97.518,205.789 97.157,206.192 97.059 C 206.595 96.960,206.924 96.767,206.924 96.629 C 206.924 96.491,207.375 96.175,207.926 95.926 C 209.100 95.395,209.417 95.130,212.408 92.179 C 213.650 90.953,214.837 89.619,215.046 89.215 C 215.255 88.811,215.594 88.416,215.798 88.337 C 216.002 88.259,216.243 87.827,216.333 87.378 C 216.423 86.929,216.785 86.310,217.139 86.002 C 217.533 85.659,217.850 85.015,217.959 84.336 C 218.056 83.727,218.360 82.987,218.634 82.693 C 218.949 82.355,219.229 81.456,219.394 80.254 C 219.538 79.207,219.877 77.889,220.147 77.325 C 220.857 75.844,220.856 68.144,220.146 67.070 C 219.890 66.681,219.552 65.544,219.396 64.543 C 219.241 63.542,218.899 62.450,218.637 62.117 C 218.375 61.784,218.017 60.914,217.842 60.183 C 217.667 59.453,217.409 58.855,217.270 58.855 C 217.131 58.855,216.830 58.405,216.602 57.856 C 216.374 57.307,216.021 56.762,215.817 56.645 C 215.613 56.527,215.249 56.048,215.009 55.579 C 214.549 54.682,214.332 54.427,212.310 52.404 C 210.298 50.393,210.031 50.164,209.187 49.732 C 208.747 49.506,208.160 49.070,207.881 48.762 C 207.602 48.454,207.213 48.202,207.016 48.202 C 206.819 48.202,206.424 47.969,206.139 47.684 C 205.854 47.399,205.105 47.028,204.475 46.861 C 203.845 46.693,202.969 46.339,202.530 46.074 C 202.091 45.808,200.881 45.462,199.843 45.303 C 198.804 45.145,197.520 44.833,196.989 44.611 C 195.664 44.058,190.640 44.072,189.348 44.633 M196.531 50.602 C 198.587 50.787,199.504 50.990,200.021 51.371 C 200.406 51.656,201.214 52.022,201.817 52.184 C 202.419 52.346,203.006 52.625,203.120 52.804 C 203.235 52.983,203.778 53.337,204.328 53.591 C 204.877 53.845,205.326 54.181,205.326 54.337 C 205.326 54.494,205.681 54.745,206.114 54.896 C 206.548 55.047,206.975 55.401,207.064 55.681 C 207.153 55.962,207.361 56.192,207.525 56.192 C 207.905 56.192,209.854 58.330,209.854 58.747 C 209.854 58.919,210.153 59.256,210.519 59.496 C 210.885 59.736,211.185 60.100,211.185 60.305 C 211.185 60.510,211.469 61.017,211.816 61.431 C 212.164 61.845,212.531 62.568,212.634 63.037 C 212.736 63.506,213.053 64.187,213.339 64.550 C 214.367 65.857,214.954 72.200,214.390 75.899 C 214.222 76.997,214.029 78.270,213.961 78.727 C 213.893 79.185,213.609 79.821,213.330 80.143 C 213.052 80.464,212.744 81.200,212.646 81.778 C 212.545 82.379,212.264 82.940,211.991 83.086 C 211.728 83.226,211.431 83.667,211.331 84.065 C 211.061 85.143,210.095 86.263,206.510 89.658 C 206.020 90.122,205.343 90.589,205.007 90.695 C 204.670 90.802,204.247 91.097,204.067 91.353 C 203.888 91.608,203.408 91.899,203.002 92.000 C 202.596 92.101,202.024 92.407,201.731 92.681 C 201.423 92.967,200.465 93.295,199.467 93.454 C 198.515 93.606,197.262 93.973,196.681 94.269 C 194.977 95.138,188.549 94.937,188.549 94.014 C 188.549 93.900,187.696 93.679,186.653 93.525 C 185.454 93.347,184.549 93.052,184.190 92.722 C 183.877 92.436,183.231 92.119,182.754 92.018 C 182.277 91.917,181.770 91.617,181.628 91.351 C 181.486 91.086,181.037 90.752,180.631 90.611 C 179.733 90.297,175.499 86.203,175.499 85.648 C 175.499 85.429,175.277 85.093,175.005 84.902 C 174.733 84.711,174.420 84.254,174.309 83.888 C 174.197 83.522,173.867 82.960,173.573 82.639 C 173.280 82.318,172.938 81.510,172.813 80.842 C 172.688 80.174,172.340 79.294,172.039 78.887 C 170.955 77.422,170.970 66.765,172.056 65.834 C 172.329 65.600,172.632 64.883,172.728 64.240 C 172.828 63.572,173.174 62.778,173.536 62.389 C 173.883 62.013,174.168 61.483,174.168 61.210 C 174.168 60.937,174.527 60.338,174.967 59.878 C 175.406 59.418,175.766 58.954,175.766 58.846 C 175.766 58.561,179.144 55.126,179.424 55.126 C 179.554 55.126,179.996 54.777,180.405 54.349 C 180.815 53.922,181.467 53.492,181.853 53.395 C 182.240 53.298,182.757 53.004,183.002 52.742 C 183.247 52.479,183.906 52.179,184.466 52.076 C 185.027 51.972,185.743 51.649,186.057 51.356 C 186.963 50.514,191.737 50.170,196.531 50.602 M190.280 58.815 C 189.987 58.926,189.301 59.220,188.757 59.469 C 188.212 59.717,187.541 59.920,187.264 59.920 C 186.988 59.920,186.424 60.233,186.012 60.616 C 185.599 60.998,184.934 61.425,184.535 61.565 C 184.135 61.704,183.745 62.059,183.668 62.353 C 183.591 62.648,183.290 62.951,182.998 63.028 C 182.707 63.104,182.399 63.445,182.313 63.786 C 182.227 64.127,181.841 64.782,181.454 65.242 C 181.066 65.703,180.647 66.638,180.520 67.327 C 180.393 68.013,180.086 68.726,179.839 68.910 C 179.095 69.461,179.169 74.571,179.943 76.165 C 180.263 76.824,180.606 77.816,180.706 78.369 C 180.810 78.944,181.103 79.490,181.389 79.644 C 181.665 79.791,181.891 80.087,181.891 80.301 C 181.891 80.637,182.614 81.425,184.963 83.643 C 185.261 83.924,185.674 84.154,185.881 84.154 C 186.087 84.154,186.732 84.484,187.313 84.887 C 188.667 85.825,196.490 86.027,198.003 85.163 C 198.442 84.912,199.194 84.519,199.673 84.291 C 200.153 84.063,200.759 83.662,201.021 83.400 C 201.283 83.138,201.737 82.751,202.030 82.540 C 202.323 82.330,202.855 81.738,203.212 81.226 C 203.569 80.714,204.055 80.150,204.291 79.972 C 204.527 79.794,204.788 79.231,204.871 78.721 C 204.954 78.211,205.299 77.418,205.638 76.960 C 206.550 75.725,206.583 68.927,205.683 67.708 C 205.366 67.280,204.955 66.424,204.770 65.806 C 204.585 65.188,204.215 64.565,203.948 64.422 C 203.681 64.279,203.462 64.029,203.462 63.865 C 203.462 63.480,201.105 61.252,200.697 61.252 C 200.525 61.252,200.185 61.018,199.941 60.733 C 199.697 60.448,198.981 60.079,198.350 59.913 C 197.720 59.746,196.904 59.415,196.538 59.177 C 195.812 58.704,191.264 58.441,190.280 58.815 M195.909 65.217 C 196.924 65.494,199.407 67.829,199.595 68.683 C 199.689 69.112,199.999 69.731,200.283 70.059 C 202.069 72.118,199.867 77.159,196.191 79.427 C 194.679 80.360,191.201 80.502,190.116 79.676 C 189.766 79.410,189.091 79.036,188.615 78.845 C 188.139 78.654,187.750 78.401,187.750 78.284 C 187.750 78.166,187.379 77.700,186.927 77.247 C 186.048 76.369,184.935 72.314,185.376 71.600 C 185.491 71.415,185.660 70.714,185.752 70.043 C 185.918 68.839,186.404 68.183,188.862 65.853 C 189.889 64.878,193.478 64.554,195.909 65.217 M170.527 144.269 C 168.917 144.415,168.813 144.661,168.899 148.107 L 168.975 151.132 171.437 151.208 C 175.004 151.319,174.967 151.357,174.967 147.670 C 174.967 143.832,175.006 143.862,170.527 144.269 M183.156 144.384 L 182.423 144.652 182.423 147.683 C 182.423 151.351,182.335 151.265,186.141 151.265 C 188.827 151.265,188.828 151.265,189.109 150.533 C 189.502 149.508,189.310 145.070,188.849 144.514 C 188.426 144.005,184.443 143.914,183.156 144.384 M196.828 144.445 C 196.624 144.692,196.546 145.873,196.596 147.974 L 196.671 151.132 200.000 151.132 L 203.329 151.132 203.404 147.974 C 203.500 143.945,203.613 144.075,200.000 144.075 C 197.878 144.075,197.056 144.171,196.828 144.445 M211.151 144.515 C 210.606 145.172,210.634 150.656,211.185 151.004 C 211.726 151.346,216.417 151.334,217.061 150.989 C 217.524 150.742,217.577 150.407,217.577 147.686 L 217.577 144.659 216.738 144.367 C 215.364 143.888,211.588 143.988,211.151 144.515 M225.499 144.362 C 224.762 144.792,224.805 150.591,225.548 150.989 C 226.280 151.381,230.971 151.346,231.372 150.945 C 232.016 150.301,231.791 144.974,231.099 144.489 C 230.411 144.007,226.271 143.913,225.499 144.362 M165.787 178.054 C 164.412 179.583,161.132 182.978,155.859 188.329 C 153.815 190.403,152.863 191.562,152.863 191.974 C 152.863 192.483,156.006 196.005,156.460 196.005 C 156.702 196.005,162.592 189.997,162.856 189.481 C 163.218 188.775,164.101 188.674,164.735 189.268 C 165.522 190.005,165.273 215.334,164.470 216.220 L 163.961 216.783 125.925 216.714 C 92.327 216.653,87.868 216.691,87.710 217.044 C 87.462 217.598,87.408 222.108,87.648 222.256 C 88.357 222.694,169.524 222.347,169.828 221.904 C 170.004 221.648,170.386 221.198,170.675 220.905 C 171.246 220.328,171.226 220.873,171.541 197.444 C 171.667 188.038,171.345 188.366,175.985 192.927 C 180.130 197.000,179.650 196.894,182.268 194.323 C 183.869 192.751,184.548 191.648,184.155 191.258 C 184.055 191.159,181.009 188.075,177.386 184.405 C 168.601 175.503,168.252 175.313,165.787 178.054 M196.696 176.995 C 196.605 177.231,196.536 190.494,196.542 206.469 C 196.550 229.738,196.484 235.555,196.212 235.728 C 195.650 236.085,195.241 235.982,194.934 235.408 C 194.774 235.109,194.100 234.300,193.436 233.610 C 192.772 232.921,192.072 232.056,191.879 231.687 C 191.126 230.247,188.492 228.063,188.172 228.614 C 188.013 228.887,187.194 229.793,186.352 230.627 C 184.421 232.537,184.343 233.257,185.918 234.621 C 186.510 235.133,187.554 236.133,188.238 236.841 C 188.921 237.550,191.488 240.157,193.942 242.634 L 198.403 247.137 200.066 247.137 L 201.728 247.137 204.485 244.274 C 206.001 242.700,207.559 241.291,207.948 241.143 C 208.983 240.750,215.636 233.848,215.862 232.933 C 216.054 232.153,214.440 230.163,212.441 228.716 C 211.472 228.015,211.311 228.123,207.453 232.071 C 205.797 233.766,204.352 235.153,204.244 235.153 C 203.529 235.153,203.462 232.628,203.462 205.441 C 203.462 190.023,203.389 177.218,203.300 176.986 C 203.057 176.352,196.940 176.360,196.696 176.995 M230.089 177.172 C 229.575 177.497,226.159 180.798,222.500 184.508 C 218.840 188.218,215.805 191.295,215.755 191.346 C 215.324 191.782,217.495 194.437,219.481 195.902 L 220.356 196.548 223.980 192.931 C 227.289 189.628,227.636 189.354,227.983 189.771 C 228.298 190.150,228.385 192.834,228.495 205.612 L 228.628 220.996 229.278 221.688 C 229.636 222.068,230.355 222.503,230.876 222.653 C 232.225 223.043,311.699 222.660,312.346 222.260 C 312.566 222.124,312.495 217.067,312.271 216.842 C 312.194 216.766,309.462 216.727,306.199 216.755 C 301.242 216.798,300.179 216.740,299.734 216.401 C 299.264 216.043,295.488 215.995,267.725 215.987 L 236.249 215.979 235.834 215.387 C 235.343 214.685,235.200 191.557,235.679 190.297 C 236.064 189.286,236.135 189.333,239.702 192.943 C 243.575 196.863,243.545 196.855,245.685 194.607 C 248.572 191.577,248.950 192.443,241.366 184.721 C 232.965 176.167,232.342 175.750,230.089 177.172"/></g></svg>