<svg xmlns="http://www.w3.org/2000/svg" xmlns:xlink="http://www.w3.org/1999/xlink" id="svg" width="400" height="355.157" version="1.1" viewBox="0 0 400 355.157"><g id="svgg"><path id="path0" fill="#000" fill-rule="evenodd" stroke="none" d="M255.300 13.322 C 246.247 17.537,242.152 22.010,242.152 27.685 C 242.152 31.750,248.203 31.131,252.188 26.658 C 264.581 12.750,296.443 16.056,305.724 32.214 C 314.559 47.593,309.534 62.465,288.730 82.511 C 270.612 99.970,262.342 123.578,273.773 125.208 C 277.075 125.679,277.762 124.588,278.861 117.137 C 280.781 104.109,284.278 98.314,297.004 87.072 C 341.365 47.883,307.957 -11.196,255.300 13.322 M262.446 145.202 C 255.292 149.565,252.915 153.931,252.915 162.712 C 252.915 184.084,282.259 190.478,291.451 171.108 C 300.317 152.425,280.147 134.410,262.446 145.202 M280.799 155.075 C 287.754 162.031,282.651 173.991,272.727 173.991 C 267.684 173.991,261.883 167.754,261.883 162.332 C 261.883 151.889,273.251 147.528,280.799 155.075 M191.868 192.168 C 173.650 200.033,147.848 210.504,134.529 215.435 C 102.184 227.412,90.425 232.447,80.356 238.628 L 71.924 243.805 71.388 233.562 L 70.852 223.318 42.152 223.318 L 13.453 223.318 12.980 283.195 C 12.643 325.888,13.092 343.776,14.545 345.527 C 16.089 347.388,22.574 347.982,41.329 347.982 C 71.070 347.982,71.749 347.786,71.749 339.215 L 71.749 332.625 101.755 333.349 C 143.212 334.350,220.933 330.484,229.254 327.007 C 232.777 325.535,259.519 313.024,288.682 299.204 C 344.670 272.672,377.101 258.296,380.968 258.296 C 384.384 258.296,389.238 252.302,389.238 248.083 C 389.238 231.999,361.845 224.624,336.404 233.858 C 323.357 238.594,322.195 238.014,329.915 230.618 C 350.622 210.779,326.427 194.230,301.945 211.486 C 296.114 215.597,292.932 216.703,289.128 215.942 C 277.050 213.527,254.592 226.000,222.448 252.978 C 207.366 265.636,207.155 265.741,199.130 264.544 C 171.158 260.371,169.693 247.663,196.249 239.563 C 226.148 230.443,240.999 213.427,236.507 193.436 C 232.505 175.625,230.332 175.563,191.868 192.168 M226.714 191.178 C 232.825 207.103,219.754 222.712,193.573 230.752 C 161.822 240.503,159.044 262.865,188.494 271.637 C 218.184 280.480,261.331 273.304,320.179 249.736 C 349.921 237.825,364.446 235.762,374.439 242.031 C 382.236 246.921,381.870 247.919,370.852 251.814 C 361.352 255.172,317.577 275.210,256.502 304.158 C 223.658 319.726,223.135 319.901,205.381 321.235 C 173.955 323.598,100.052 325.225,85.650 323.871 L 71.749 322.564 71.749 289.693 L 71.749 256.821 77.406 252.061 C 85.835 244.969,103.649 236.589,132.735 226.033 C 147.040 220.842,173.274 210.263,191.031 202.524 C 227.368 186.689,225.250 187.363,226.714 191.178 M328.251 216.793 C 328.251 228.879,296.190 250.609,265.471 259.343 C 260.862 260.653,302.470 221.062,309.724 217.235 C 318.813 212.440,328.251 212.215,328.251 216.793 M264.571 244.636 L 245.690 263.817 233.607 264.844 L 221.525 265.872 228.556 259.842 C 250.163 241.311,279.684 222.457,282.982 225.081 C 283.240 225.287,274.956 234.086,264.571 244.636 M62.780 284.305 L 62.780 337.220 42.152 337.220 L 21.525 337.220 21.525 284.305 L 21.525 231.390 42.152 231.390 L 62.780 231.390 62.780 284.305"/></g></svg>